<?xml version="1.0" encoding="UTF-8" standalone="no"?>
<!-- Uploaded to: SVG Repo, www.svgrepo.com, Generator: SVG Repo Mixer Tools -->

<svg
   fill="#000000"
   height="800"
   width="800"
   version="1.1"
   id="Layer_1"
   viewBox="0 0 476.213 476.213"
   xml:space="preserve"
   sodipodi:docname="arrow-left-white.svg"
   inkscape:version="1.3.2 (091e20e, 2023-11-25, custom)"
   xmlns:inkscape="http://www.inkscape.org/namespaces/inkscape"
   xmlns:sodipodi="http://sodipodi.sourceforge.net/DTD/sodipodi-0.dtd"
   xmlns="http://www.w3.org/2000/svg"
   xmlns:svg="http://www.w3.org/2000/svg"><defs
   id="defs1" /><sodipodi:namedview
   id="namedview1"
   pagecolor="#505050"
   bordercolor="#ffffff"
   borderopacity="1"
   inkscape:showpageshadow="0"
   inkscape:pageopacity="0"
   inkscape:pagecheckerboard="1"
   inkscape:deskcolor="#505050"
   inkscape:zoom="1.02625"
   inkscape:cx="400.48721"
   inkscape:cy="400"
   inkscape:window-width="1920"
   inkscape:window-height="1017"
   inkscape:window-x="1072"
   inkscape:window-y="193"
   inkscape:window-maximized="1"
   inkscape:current-layer="Layer_1" />
<polygon
   points="151.82,128.713 130.607,107.5 0,238.106 130.607,368.714 151.82,347.5 57.427,253.107 476.213,253.107 476.213,223.107 57.427,223.107 "
   id="polygon1" />
<path
   style="fill:#e6e6e6;stroke-width:0.58004"
   d="m 65.254199,303.07068 -64.96288489,-64.96483 65.10599889,-65.106 65.106007,-65.106 10.44594,10.43385 10.44595,10.43385 -46.98562,46.98827 c -25.842082,25.84354 -46.985611,47.18343 -46.985611,47.42197 0,0.23854 94.227531,0.4337 209.394511,0.4337 H 476.213 v 14.50101 14.50101 H 266.81849 c -115.16698,0 -209.394511,0.19636 -209.394511,0.43636 0,0.24001 21.141445,21.57662 46.980991,47.41468 l 46.98099,46.97831 -10.28741,10.29932 c -5.65807,5.66463 -10.42106,10.29932 -10.58444,10.29932 -0.16337,0 -29.53032,-29.23417 -65.259911,-64.96482 z"
   id="path1" /></svg>
