<svg id="svg" version="1.1" xmlns="http://www.w3.org/2000/svg" xmlns:xlink="http://www.w3.org/1999/xlink" width="400" height="132.28346456692913" viewBox="0, 0, 400,132.28346456692913"><g id="svgg"><path id="path0" d="M26.833 1.586 L 26.833 3.172 26.056 3.917 C 25.590 4.364,25.059 4.703,24.729 4.765 C 23.737 4.951,23.754 4.839,23.701 11.426 L 23.651 17.467 22.635 17.646 C 20.656 17.995,20.643 18.050,20.548 26.520 L 20.474 33.124 19.306 33.207 C 17.351 33.347,17.356 33.324,17.342 42.601 L 17.333 48.785 16.061 48.881 C 14.152 49.026,14.188 48.877,14.175 56.630 C 14.169 60.516,14.119 61.692,13.958 61.742 C 13.844 61.778,13.477 61.853,13.144 61.908 C 11.392 62.198,11.121 63.393,11.039 71.190 L 10.978 77.129 10.468 77.231 C 10.188 77.287,9.747 77.333,9.488 77.333 C 8.036 77.333,7.854 78.480,7.841 87.691 L 7.833 92.800 6.648 92.919 C 4.853 93.099,4.908 92.973,4.777 97.166 C 4.716 99.121,4.667 101.898,4.667 103.338 L 4.667 105.955 3.942 106.232 C 3.057 106.569,2.608 107.039,2.330 107.917 C 2.213 108.283,2.035 108.637,1.934 108.702 C 1.764 108.812,1.578 113.621,1.519 119.458 L 1.500 121.333 0.750 121.333 L 0.000 121.333 0.000 126.750 L 0.000 132.167 41.667 132.167 L 83.333 132.167 83.333 131.417 C 83.333 130.819,83.393 130.664,83.625 130.652 C 83.785 130.644,85.679 130.580,87.833 130.511 C 92.732 130.352,92.576 130.415,92.774 128.524 L 92.877 127.533 95.480 127.429 C 98.956 127.290,99.112 127.195,99.150 125.208 L 99.167 124.333 100.292 124.325 C 104.460 124.295,105.331 123.998,105.336 122.607 C 105.340 121.242,105.375 121.208,106.841 121.141 C 108.484 121.066,108.567 120.983,108.642 119.326 L 108.702 118.000 110.168 118.000 L 111.634 118.000 111.808 117.500 C 111.904 117.225,112.096 117.000,112.236 117.000 C 112.643 117.000,113.636 116.026,113.860 115.405 C 114.014 114.980,114.165 114.833,114.450 114.833 C 114.661 114.833,114.833 114.768,114.833 114.688 C 114.833 114.608,115.141 114.493,115.517 114.433 C 116.833 114.223,117.667 113.414,117.667 112.348 C 117.667 112.154,117.736 111.865,117.821 111.706 C 117.906 111.547,118.015 111.288,118.064 111.130 C 118.112 110.973,118.403 110.739,118.709 110.611 C 119.345 110.345,120.119 109.498,120.268 108.904 C 120.340 108.617,120.485 108.500,120.768 108.500 C 121.160 108.500,121.167 108.475,121.167 106.917 L 121.167 105.333 122.550 105.333 C 124.286 105.333,124.333 105.286,124.333 103.569 L 124.333 102.205 125.414 102.090 C 127.217 101.897,127.497 101.311,127.499 97.731 L 127.500 96.045 128.273 95.939 C 128.699 95.881,129.289 95.833,129.586 95.833 C 130.502 95.833,130.577 95.589,130.638 92.413 L 130.694 89.543 131.517 89.446 C 133.551 89.205,133.677 88.877,133.790 83.540 L 133.872 79.663 134.311 79.559 C 135.327 79.318,136.333 78.282,136.333 77.478 C 136.333 77.367,136.465 77.131,136.625 76.954 C 136.900 76.650,136.917 75.374,136.917 55.136 C 136.917 30.400,137.149 33.167,135.075 33.167 L 133.881 33.167 133.796 29.292 C 133.684 24.200,133.619 24.025,131.762 23.847 L 130.750 23.750 130.667 22.285 C 130.567 20.534,130.538 20.506,128.817 20.503 L 127.551 20.500 127.452 18.185 C 127.308 14.818,127.000 14.337,124.980 14.334 L 124.376 14.333 124.262 13.173 C 124.110 11.626,123.863 11.342,122.583 11.232 C 120.967 11.093,120.833 11.043,120.833 10.575 C 120.833 9.467,119.834 8.344,118.833 8.328 C 118.604 8.324,118.229 8.214,118.000 8.083 C 117.742 7.936,117.098 7.843,116.306 7.839 L 115.028 7.833 114.911 6.542 C 114.761 4.891,114.707 4.833,113.339 4.833 C 112.723 4.833,111.429 4.785,110.465 4.726 L 108.711 4.619 108.618 3.383 C 108.491 1.707,108.443 1.667,106.589 1.667 C 105.743 1.667,104.365 1.618,103.526 1.558 L 102.000 1.450 102.000 0.725 L 102.000 0.000 64.417 0.000 L 26.833 0.000 26.833 1.586 M168.500 1.598 L 168.500 3.196 167.729 3.945 C 167.228 4.433,166.760 4.727,166.390 4.787 C 165.443 4.940,165.431 5.016,165.362 11.538 L 165.299 17.493 164.458 17.605 C 162.461 17.870,162.327 18.432,162.214 27.020 L 162.133 33.124 161.047 33.211 C 159.083 33.369,159.042 33.589,159.013 44.019 L 159.000 48.789 157.819 48.873 C 155.997 49.003,156.103 48.685,155.965 54.464 C 155.899 57.188,155.824 59.934,155.798 60.565 L 155.750 61.714 154.943 61.919 C 153.071 62.392,152.943 62.955,152.877 70.949 L 152.825 77.147 152.038 77.247 C 149.611 77.555,149.762 77.010,149.696 85.695 L 149.642 92.807 148.410 92.923 C 146.426 93.109,146.591 92.511,146.531 99.713 L 146.478 105.954 145.791 106.160 C 145.113 106.363,144.167 107.182,144.167 107.566 C 144.167 107.674,143.999 108.060,143.794 108.423 C 143.431 109.068,143.421 109.227,143.370 115.186 L 143.318 121.288 142.396 121.383 C 140.423 121.587,140.332 121.850,140.213 127.708 L 140.123 132.167 182.561 132.167 L 225.000 132.167 225.000 131.417 C 225.000 130.754,225.044 130.665,225.375 130.652 C 225.581 130.644,227.531 130.586,229.708 130.522 C 234.413 130.386,234.354 130.410,234.468 128.605 L 234.537 127.536 237.060 127.426 C 240.873 127.260,240.833 127.282,240.833 125.345 L 240.833 124.378 243.448 124.256 C 247.012 124.091,246.938 124.132,247.117 122.210 L 247.215 121.167 248.347 121.167 C 250.254 121.167,250.333 121.097,250.333 119.427 L 250.333 118.013 251.875 117.965 C 253.326 117.919,253.420 117.895,253.470 117.545 C 253.506 117.288,253.750 117.072,254.254 116.849 C 254.818 116.599,255.093 116.331,255.451 115.681 C 255.724 115.188,256.034 114.837,256.198 114.836 C 256.354 114.834,256.519 114.771,256.566 114.695 C 256.613 114.619,257.066 114.464,257.572 114.350 C 258.626 114.115,259.069 113.675,259.337 112.603 C 259.431 112.226,259.581 111.786,259.670 111.627 C 259.760 111.468,259.834 111.243,259.834 111.127 C 259.834 111.011,260.190 110.729,260.625 110.500 C 261.210 110.192,261.515 109.887,261.794 109.333 C 262.025 108.873,262.316 108.548,262.544 108.493 C 262.892 108.408,262.920 108.299,262.965 106.868 L 263.013 105.333 264.413 105.333 C 266.072 105.333,266.041 105.366,266.135 103.565 L 266.207 102.201 267.254 102.089 C 268.972 101.905,269.077 101.700,269.268 98.143 L 269.381 96.036 269.982 95.936 C 270.313 95.882,270.859 95.836,271.196 95.835 C 272.090 95.832,272.333 95.500,272.334 94.280 C 272.335 93.713,272.383 92.414,272.442 91.393 L 272.549 89.536 273.387 89.425 C 275.291 89.173,275.558 88.083,275.661 80.148 C 275.666 79.787,275.795 79.663,276.415 79.426 C 277.255 79.105,277.720 78.604,278.015 77.698 C 278.125 77.360,278.298 77.030,278.399 76.964 C 278.725 76.754,278.740 34.054,278.415 33.557 C 278.185 33.206,278.034 33.167,276.937 33.167 L 275.716 33.167 275.608 31.892 C 275.549 31.190,275.495 29.671,275.488 28.517 C 275.465 24.525,275.239 23.991,273.527 23.868 L 272.540 23.796 272.437 23.041 C 272.380 22.626,272.333 21.975,272.333 21.593 C 272.333 20.624,272.141 20.500,270.633 20.500 L 269.333 20.500 269.333 19.458 C 269.331 15.536,268.910 14.602,267.041 14.368 L 266.083 14.249 265.970 13.099 C 265.817 11.558,265.568 11.318,264.010 11.206 C 262.708 11.113,262.628 11.049,262.428 9.940 C 262.285 9.152,261.666 8.545,260.855 8.398 C 260.522 8.338,260.047 8.186,259.800 8.061 C 259.532 7.926,258.815 7.833,258.030 7.833 L 256.709 7.833 256.631 6.485 C 256.539 4.891,256.487 4.839,254.984 4.836 C 254.380 4.834,253.086 4.784,252.109 4.725 L 250.333 4.616 250.333 3.403 C 250.333 1.753,250.230 1.667,248.264 1.667 C 247.413 1.667,246.031 1.618,245.192 1.558 L 243.667 1.450 243.667 0.725 L 243.667 0.000 206.083 0.000 L 168.500 0.000 168.500 1.598 M341.801 0.792 L 341.750 1.583 340.445 1.667 C 338.647 1.781,338.667 1.744,338.667 5.090 L 338.667 7.784 337.222 7.886 C 335.493 8.008,335.506 7.993,335.503 9.873 L 335.500 11.329 334.824 11.437 C 333.746 11.610,333.135 12.124,332.865 13.085 C 332.737 13.542,332.565 14.047,332.483 14.206 C 332.401 14.365,332.333 15.125,332.333 15.895 C 332.333 17.468,332.311 17.493,330.893 17.498 C 329.479 17.502,329.195 18.251,329.175 22.024 L 329.167 23.631 327.847 23.691 C 326.047 23.773,326.010 23.849,326.004 27.520 L 326.000 29.790 325.375 29.893 C 325.031 29.950,324.396 29.997,323.964 29.998 C 322.963 30.001,322.833 30.227,322.833 31.968 L 322.833 33.290 322.036 33.396 C 320.697 33.574,320.000 34.375,320.000 35.735 C 320.000 36.053,319.925 36.360,319.833 36.417 C 319.742 36.473,319.667 37.143,319.667 37.906 L 319.667 39.292 319.146 39.396 C 318.859 39.453,318.349 39.500,318.011 39.500 C 316.827 39.500,316.771 39.632,316.597 42.803 L 316.442 45.634 315.131 45.694 C 313.517 45.767,313.575 45.678,313.449 48.307 L 313.348 50.425 312.593 51.213 C 311.998 51.834,311.724 52.001,311.294 52.003 C 310.423 52.007,310.352 52.133,310.299 53.755 L 310.250 55.250 309.331 55.349 C 307.565 55.539,307.383 55.879,307.220 59.292 L 307.115 61.500 305.933 61.503 C 304.082 61.507,304.000 61.662,304.000 65.156 L 304.000 67.624 302.661 67.701 C 300.948 67.800,300.928 67.825,300.861 69.889 L 300.805 71.595 300.028 72.006 C 299.457 72.307,299.139 72.627,298.833 73.208 C 298.596 73.658,298.299 73.999,298.144 74.000 C 297.789 74.000,297.672 74.482,297.669 75.951 L 297.667 77.152 297.042 77.250 C 296.698 77.305,296.183 77.384,295.898 77.428 C 294.873 77.583,294.511 78.843,294.503 82.292 L 294.500 83.500 293.292 83.503 C 291.442 83.506,291.361 83.672,291.343 87.520 L 291.333 89.624 290.012 89.739 C 288.392 89.880,288.359 89.918,288.226 91.791 L 288.119 93.298 287.489 93.399 C 286.589 93.543,285.921 94.171,285.660 95.121 C 285.540 95.558,285.380 95.958,285.304 96.010 C 285.229 96.061,285.119 96.788,285.059 97.626 L 284.951 99.149 284.017 99.251 C 282.155 99.454,282.089 99.578,281.905 103.208 L 281.788 105.500 280.644 105.500 C 278.986 105.500,278.834 105.693,278.832 107.792 C 278.831 108.685,278.784 109.912,278.727 110.518 L 278.623 111.620 277.186 111.768 L 275.750 111.917 275.702 113.542 L 275.655 115.167 275.202 115.168 C 273.260 115.172,272.500 116.493,272.500 119.865 L 272.500 121.146 271.324 121.262 C 269.437 121.448,269.440 121.443,269.361 124.731 L 269.294 127.500 268.096 127.500 C 266.292 127.500,266.261 127.541,266.195 130.070 L 266.139 132.167 286.570 132.167 L 307.000 132.167 307.000 131.355 L 307.000 130.543 308.125 130.429 C 309.954 130.244,310.164 129.793,310.166 126.042 L 310.167 124.167 311.375 124.164 C 313.245 124.160,313.333 123.991,313.333 120.401 L 313.333 118.049 314.620 117.940 C 316.448 117.786,316.406 117.863,316.472 114.511 L 316.528 111.701 317.840 111.641 C 319.581 111.562,319.571 111.576,319.643 109.038 L 319.703 106.926 320.351 106.296 C 320.708 105.950,321.000 105.592,321.000 105.500 C 321.000 105.390,328.234 105.333,342.417 105.333 L 363.833 105.333 363.843 114.125 C 363.853 123.980,363.853 123.979,364.868 124.218 C 365.255 124.309,365.769 124.646,366.243 125.120 L 367.000 125.877 367.000 129.022 L 367.000 132.167 383.500 132.167 L 400.000 132.167 400.000 120.417 L 400.000 108.667 399.250 108.667 L 398.500 108.667 398.480 105.625 C 398.470 103.952,398.413 99.155,398.355 94.964 C 398.233 86.126,398.385 86.801,396.499 86.695 L 395.333 86.629 395.319 79.690 C 395.288 64.613,395.314 64.807,393.333 64.695 L 392.167 64.629 392.150 56.856 C 392.120 42.785,392.106 42.670,390.440 42.664 C 390.060 42.663,389.588 42.619,389.389 42.565 L 389.028 42.468 388.964 32.193 C 388.888 19.934,389.034 20.788,386.971 20.580 L 385.833 20.466 385.832 11.608 C 385.832 6.736,385.783 2.131,385.724 1.375 L 385.617 0.000 363.734 0.000 L 341.852 0.000 341.801 0.792 M67.932 27.685 C 68.167 29.763,68.470 29.830,77.625 29.832 L 83.667 29.833 83.667 30.558 C 83.667 32.489,84.133 32.779,87.488 32.939 L 89.833 33.051 89.836 34.067 C 89.840 35.896,90.129 36.164,92.107 36.166 L 92.964 36.167 93.028 37.433 C 93.105 38.962,93.222 39.080,94.816 39.237 L 95.959 39.349 96.061 39.966 C 96.117 40.306,96.164 40.896,96.165 41.278 C 96.167 42.189,96.300 42.500,96.684 42.500 C 96.858 42.500,97.000 42.601,97.000 42.725 C 97.000 43.169,97.986 44.307,98.548 44.510 L 99.114 44.714 99.223 50.588 C 99.284 53.818,99.283 60.069,99.223 64.479 L 99.112 72.497 98.392 73.249 C 97.809 73.858,97.562 74.000,97.092 74.000 C 96.357 74.000,96.167 74.332,96.166 75.614 C 96.165 76.147,96.117 77.427,96.057 78.458 L 95.949 80.333 94.808 80.333 C 93.102 80.333,93.000 80.482,93.000 82.978 L 93.000 84.956 92.228 85.728 C 91.578 86.378,91.355 86.500,90.817 86.500 C 89.988 86.500,89.833 86.797,89.833 88.385 L 89.833 89.625 88.403 89.700 C 86.694 89.790,86.673 89.812,86.669 91.525 L 86.667 92.799 85.244 92.858 C 83.535 92.928,83.506 92.959,83.503 94.708 L 83.500 96.000 81.708 96.003 C 78.049 96.010,77.487 96.209,77.384 97.532 C 77.246 99.294,77.411 99.165,75.288 99.179 C 71.513 99.203,71.168 99.362,71.041 101.136 L 70.958 102.301 63.854 102.366 C 56.034 102.438,55.726 102.477,55.292 103.450 C 55.178 103.707,54.731 104.273,54.300 104.708 L 53.516 105.500 46.425 105.500 L 39.333 105.500 39.333 103.852 L 39.333 102.203 40.580 102.140 C 42.541 102.041,42.402 102.525,42.500 95.454 L 42.583 89.420 43.355 89.310 C 45.466 89.009,45.659 88.201,45.664 79.625 L 45.667 73.833 46.558 73.833 C 48.783 73.833,48.695 74.113,48.818 66.693 L 48.917 60.802 49.557 60.582 C 50.426 60.284,50.967 59.737,51.198 58.927 C 51.304 58.554,51.504 58.116,51.643 57.952 C 51.856 57.702,51.908 56.692,51.969 51.599 L 52.043 45.543 52.993 45.444 C 55.084 45.225,55.145 44.927,55.159 34.977 L 55.167 29.871 56.353 29.804 C 57.916 29.716,58.167 29.440,58.167 27.815 L 58.167 26.667 62.992 26.667 L 67.817 26.667 67.932 27.685 M209.667 27.422 C 209.667 29.712,209.654 29.709,218.270 29.794 L 225.291 29.864 225.396 30.759 C 225.619 32.654,225.839 32.781,229.165 32.940 L 231.455 33.049 231.562 34.311 C 231.696 35.902,231.823 36.028,233.388 36.128 L 234.631 36.208 234.747 37.440 C 234.890 38.972,235.018 39.098,236.575 39.244 L 237.833 39.362 237.833 40.609 C 237.833 41.915,238.015 42.500,238.420 42.500 C 238.553 42.500,238.767 42.752,238.896 43.059 C 239.192 43.768,239.930 44.458,240.534 44.591 L 241.000 44.693 241.000 58.521 L 241.000 72.349 240.175 73.175 C 239.510 73.839,239.239 74.000,238.785 74.000 C 237.939 74.000,237.833 74.396,237.833 77.574 L 237.833 80.298 236.507 80.358 C 234.783 80.437,234.798 80.415,234.702 82.927 L 234.620 85.038 233.889 85.769 C 233.269 86.389,233.057 86.500,232.491 86.500 C 231.668 86.500,231.500 86.837,231.500 88.489 L 231.500 89.624 230.161 89.701 C 228.504 89.797,228.433 89.869,228.358 91.507 L 228.298 92.833 227.098 92.833 C 225.449 92.833,225.328 92.949,225.213 94.633 L 225.119 96.000 223.268 96.012 C 219.508 96.037,219.168 96.196,219.040 97.986 L 218.955 99.167 217.103 99.181 C 213.179 99.211,212.935 99.323,212.749 101.177 L 212.633 102.333 206.691 102.336 C 198.622 102.340,197.379 102.489,197.025 103.497 C 196.944 103.728,196.520 104.273,196.083 104.708 L 195.289 105.500 188.228 105.500 L 181.167 105.500 181.167 103.833 L 181.167 102.167 182.125 102.164 C 184.258 102.159,184.167 102.465,184.167 95.329 L 184.167 89.506 184.625 89.412 C 187.269 88.870,187.333 88.640,187.333 79.819 L 187.333 73.833 188.322 73.833 C 190.490 73.833,190.391 74.151,190.496 66.839 L 190.583 60.762 191.213 60.613 C 191.993 60.429,192.769 59.678,192.922 58.959 C 192.985 58.661,193.160 58.278,193.310 58.108 C 193.551 57.836,193.589 57.066,193.631 51.649 L 193.678 45.500 194.381 45.491 C 196.764 45.459,196.728 45.585,196.805 36.979 L 196.868 29.875 198.127 29.794 C 199.658 29.696,199.754 29.594,199.912 27.911 L 200.028 26.667 204.848 26.667 L 209.667 26.667 209.667 27.422 M357.805 66.000 C 358.154 67.037,358.423 67.228,359.792 67.413 L 360.667 67.531 360.667 72.349 L 360.667 77.167 347.958 77.167 L 335.250 77.167 335.333 75.542 L 335.417 73.917 336.551 73.805 C 338.340 73.628,338.498 73.311,338.499 69.897 L 338.500 67.710 339.125 67.607 C 339.469 67.550,340.017 67.503,340.343 67.502 C 341.527 67.498,341.577 67.371,341.639 64.197 L 341.694 61.367 343.029 61.307 C 344.865 61.223,344.833 61.284,344.833 57.801 L 344.833 55.000 346.244 55.000 C 347.966 55.000,348.000 54.958,348.000 52.883 L 348.000 51.412 348.825 51.119 C 349.700 50.808,350.231 50.240,350.426 49.407 C 350.488 49.137,350.662 48.820,350.812 48.701 C 351.017 48.539,351.097 48.126,351.141 47.015 L 351.198 45.544 352.294 45.362 C 353.966 45.085,354.098 44.819,354.277 41.381 L 354.383 39.346 355.067 39.256 C 355.443 39.206,356.125 39.147,356.583 39.124 L 357.417 39.083 357.513 52.250 C 357.581 61.681,357.664 65.582,357.805 66.000 " stroke="none" fill="#040404" fill-rule="evenodd"></path><path id="path1" d="" stroke="none" fill="#080404" fill-rule="evenodd"></path></g></svg>