<svg id="svg" version="1.1" xmlns="http://www.w3.org/2000/svg" xmlns:xlink="http://www.w3.org/1999/xlink" width="400" height="400" viewBox="0, 0, 400,400"><g id="svgg"><path id="path0" d="M149.802 2.673 C 144.461 4.170,139.396 14.108,140.918 20.105 C 141.600 22.794,140.435 23.093,137.389 21.007 C 136.033 20.079,133.881 18.809,132.607 18.186 L 130.290 17.052 128.858 17.826 C 125.920 19.413,124.259 23.600,124.307 29.296 C 124.334 32.457,124.251 32.859,123.443 33.496 C 121.053 35.377,120.464 38.650,121.910 42.000 C 122.834 44.140,124.226 47.290,125.053 49.112 C 126.515 52.332,127.589 56.400,126.977 56.400 C 126.855 56.400,125.210 55.760,123.321 54.979 C 112.098 50.333,106.779 50.074,102.267 53.953 C 100.078 55.836,99.846 62.007,101.792 66.600 C 103.221 69.975,102.666 71.739,100.461 70.825 C 95.557 68.794,94.202 77.429,98.640 82.431 C 98.948 82.779,99.200 83.246,99.200 83.470 C 99.200 83.693,99.585 84.219,100.055 84.638 C 102.475 86.796,101.898 89.200,98.960 89.200 C 95.961 89.200,92.424 91.982,92.409 94.354 C 92.373 99.742,100.195 114.087,106.900 120.932 C 107.725 121.774,108.400 122.552,108.400 122.660 C 108.400 122.987,106.307 126.550,105.682 127.287 C 104.878 128.235,104.954 129.777,105.850 130.693 C 108.229 133.124,119.872 142.400,120.545 142.400 C 122.263 142.400,125.885 146.441,124.846 147.200 C 122.356 149.019,122.399 150.791,124.977 152.567 C 126.175 153.391,127.583 154.463,128.106 154.948 C 128.629 155.432,129.944 156.538,131.028 157.405 C 132.113 158.271,134.170 159.992,135.600 161.229 C 139.943 164.985,144.386 167.550,154.600 172.198 C 157.422 173.482,162.370 175.110,164.509 175.459 C 165.339 175.594,166.114 175.861,166.232 176.053 C 166.351 176.244,166.711 176.400,167.033 176.400 C 167.356 176.400,168.830 177.155,170.310 178.077 C 172.848 179.660,174.513 180.929,181.854 186.873 C 196.769 198.950,196.925 203.954,182.200 197.993 C 181.760 197.815,179.960 197.104,178.200 196.413 C 176.440 195.723,174.640 195.006,174.200 194.820 C 172.379 194.050,170.471 193.211,168.326 192.235 C 167.075 191.666,165.939 191.200,165.803 191.200 C 165.204 191.200,153.791 185.429,149.650 183.033 C 147.147 181.585,145.034 180.400,144.954 180.400 C 143.364 180.400,130.746 170.338,126.109 165.374 C 121.881 160.845,121.643 160.711,120.471 162.200 C 119.462 163.484,119.259 163.463,117.372 161.886 C 115.050 159.944,110.635 156.550,110.189 156.362 C 109.975 156.273,108.540 155.370,107.000 154.357 C 98.544 148.794,96.026 148.488,94.082 152.789 C 92.512 156.265,93.131 156.326,84.643 151.853 C 83.127 151.054,81.737 150.400,81.554 150.400 C 81.371 150.400,80.272 149.967,79.111 149.437 C 70.562 145.537,66.000 145.971,66.000 150.684 C 66.000 153.093,66.285 153.020,61.827 151.758 C 59.288 151.040,52.165 151.030,49.914 151.742 C 48.971 152.041,47.390 152.525,46.400 152.818 C 40.446 154.583,38.939 156.142,39.838 159.608 C 40.525 162.256,42.868 168.049,44.582 171.337 C 46.120 174.288,45.891 174.976,43.736 173.880 C 38.820 171.377,30.059 171.328,28.180 173.791 C 27.253 175.005,26.994 175.102,23.994 175.352 C 17.010 175.935,15.988 177.498,18.600 183.600 C 19.370 185.399,20.000 186.932,20.000 187.007 C 20.000 187.082,18.965 187.426,17.700 187.771 C 10.062 189.856,6.579 192.116,3.352 197.081 C 1.602 199.773,1.880 201.938,4.351 204.860 C 4.601 205.157,5.445 206.151,6.225 207.070 C 7.005 207.988,8.759 209.492,10.122 210.411 C 13.839 212.918,14.282 213.655,13.458 215.954 C 12.482 218.677,13.181 220.074,16.360 221.749 C 16.932 222.051,18.210 222.736,19.200 223.273 C 21.383 224.456,28.142 227.227,31.300 228.233 C 33.819 229.035,34.121 229.619,32.861 231.246 C 30.413 234.404,25.200 243.341,25.200 244.379 C 25.200 246.911,33.009 250.200,40.900 250.993 C 43.568 251.260,44.147 251.693,43.160 252.680 C 42.499 253.341,43.115 255.519,44.045 255.814 C 44.960 256.105,49.917 255.761,53.400 255.165 C 57.837 254.407,64.278 252.814,71.321 250.734 C 76.096 249.324,76.514 250.633,72.500 254.421 C 58.233 267.887,58.637 267.375,60.574 269.518 C 62.360 271.495,62.365 271.422,60.193 274.811 C 56.906 279.939,56.164 284.506,58.300 286.452 C 61.223 289.114,69.507 290.882,78.561 290.777 L 83.800 290.716 83.665 293.085 C 83.338 298.810,84.290 299.518,90.521 298.183 C 98.294 296.519,103.604 294.046,108.643 289.744 C 111.556 287.257,112.666 287.668,111.914 290.953 C 108.976 303.779,116.989 308.442,126.965 299.711 C 128.505 298.363,129.694 297.623,130.200 297.699 C 130.967 297.814,130.993 297.977,130.515 299.661 C 130.393 300.089,130.637 300.421,131.203 300.601 C 132.534 301.023,135.637 298.670,141.854 292.525 C 148.015 286.435,147.866 286.526,148.580 288.400 C 148.873 289.170,149.450 290.700,149.862 291.800 C 150.883 294.523,151.100 294.800,152.211 294.800 C 155.406 294.800,160.237 289.952,167.259 279.700 C 170.027 275.659,170.231 275.553,173.200 276.600 C 174.135 276.930,174.959 277.200,175.030 277.200 C 175.559 277.200,180.400 271.282,180.400 270.635 C 180.400 270.525,180.854 269.766,181.409 268.948 C 182.754 266.966,186.840 258.592,188.411 254.600 C 189.103 252.840,189.821 251.040,190.006 250.600 C 190.562 249.281,192.041 245.085,192.402 243.800 C 193.065 241.447,195.661 233.788,196.027 233.105 C 196.232 232.723,196.400 232.134,196.400 231.795 C 196.400 231.456,196.851 229.788,197.402 228.089 C 197.952 226.390,198.735 223.920,199.142 222.600 C 200.297 218.844,200.903 219.325,202.666 225.400 C 203.913 229.696,205.188 236.766,205.989 243.827 C 206.519 248.501,206.520 266.357,205.992 271.686 C 204.551 286.201,204.023 290.075,201.615 303.800 C 201.422 304.900,201.068 307.036,200.827 308.546 C 200.587 310.057,200.293 311.449,200.175 311.640 C 200.057 311.832,199.788 312.936,199.577 314.094 C 199.366 315.252,198.913 317.460,198.569 319.000 C 195.521 332.663,193.731 351.498,193.381 373.600 C 193.288 379.430,193.159 386.761,193.093 389.890 C 192.961 396.141,193.008 396.263,195.277 395.530 C 196.005 395.296,197.405 394.990,198.389 394.852 L 200.177 394.600 200.257 378.132 C 200.310 367.276,200.485 361.389,200.769 360.858 C 201.006 360.415,201.206 358.556,201.212 356.726 C 201.219 354.897,201.412 352.050,201.640 350.400 C 201.869 348.750,202.214 345.780,202.408 343.800 C 203.294 334.726,205.333 320.356,205.853 319.514 C 205.987 319.297,206.244 318.103,206.425 316.860 C 206.606 315.617,207.037 312.800,207.384 310.600 C 207.731 308.400,208.183 305.340,208.389 303.800 C 208.595 302.260,209.043 299.020,209.384 296.600 C 209.726 294.180,210.169 290.670,210.369 288.800 C 210.569 286.930,210.833 285.130,210.955 284.800 C 211.161 284.245,211.606 280.687,212.407 273.200 C 212.583 271.550,212.930 268.670,213.178 266.800 C 214.513 256.731,213.448 232.212,211.449 227.000 C 209.613 222.213,211.996 220.363,216.400 223.155 C 219.079 224.854,220.095 226.566,222.600 233.600 C 225.708 242.326,228.927 246.400,232.714 246.400 C 234.548 246.400,234.794 246.518,235.831 247.900 C 236.451 248.725,237.058 249.490,237.181 249.600 C 237.304 249.710,237.934 250.520,238.581 251.400 C 239.228 252.280,240.667 254.090,241.779 255.423 C 242.891 256.755,244.430 258.636,245.200 259.603 C 249.898 265.501,249.702 265.438,253.245 262.186 L 256.111 259.556 260.396 263.778 C 265.193 268.506,265.085 268.454,266.738 266.800 C 268.181 265.357,268.558 265.327,270.162 266.523 C 270.843 267.031,272.030 267.759,272.800 268.142 C 273.570 268.524,275.100 269.369,276.200 270.020 C 283.780 274.500,285.511 274.627,289.051 270.962 C 290.453 269.511,291.600 268.161,291.600 267.962 C 291.600 267.488,292.628 267.499,293.505 267.983 C 302.485 272.929,310.663 272.942,314.800 268.018 C 314.910 267.887,316.564 267.774,318.475 267.767 C 326.491 267.736,328.940 263.387,325.152 255.905 C 324.958 255.523,324.800 255.039,324.800 254.829 C 324.800 254.619,324.080 252.896,323.200 251.000 C 322.320 249.104,321.600 247.398,321.600 247.210 C 321.600 247.021,321.460 246.807,321.290 246.733 C 321.119 246.660,320.309 245.290,319.489 243.688 C 317.743 240.277,317.995 239.889,321.271 240.947 C 322.383 241.306,323.621 241.600,324.022 241.600 C 324.424 241.600,324.864 241.780,325.000 242.000 C 325.136 242.220,325.765 242.400,326.398 242.400 C 327.030 242.400,328.055 242.597,328.674 242.839 C 329.779 243.269,331.814 243.671,336.600 244.405 C 337.920 244.607,339.810 244.951,340.800 245.169 C 343.961 245.865,353.834 245.696,356.532 244.900 L 358.905 244.200 358.691 239.200 C 358.574 236.450,358.354 233.893,358.203 233.517 C 357.998 233.010,358.169 232.783,358.864 232.640 C 359.379 232.533,361.690 232.086,364.000 231.647 C 370.300 230.447,370.399 230.415,373.225 228.600 C 377.427 225.900,381.499 220.984,381.573 218.521 C 381.629 216.676,379.497 213.723,374.749 209.068 C 371.042 205.434,369.971 204.154,370.130 203.548 C 370.360 202.665,368.245 200.892,365.916 200.015 C 365.192 199.742,364.240 199.361,363.800 199.168 C 362.109 198.425,360.547 197.886,359.200 197.579 C 358.430 197.403,356.720 196.964,355.400 196.601 C 354.080 196.239,352.190 195.787,351.200 195.596 C 345.744 194.547,345.200 194.331,345.200 193.219 C 345.200 192.258,345.859 192.019,350.400 191.333 C 356.943 190.344,358.144 190.136,360.200 189.635 C 361.300 189.366,362.513 188.979,362.895 188.773 C 363.277 188.568,364.031 188.400,364.571 188.400 C 365.111 188.400,365.655 188.234,365.781 188.031 C 365.906 187.828,366.592 187.540,367.305 187.391 C 371.807 186.449,377.788 182.248,377.488 180.238 C 377.183 178.199,377.718 177.495,383.071 172.882 C 393.286 164.080,393.652 162.469,386.600 157.359 C 385.720 156.722,384.804 156.017,384.565 155.793 C 384.325 155.570,383.065 154.670,381.765 153.793 C 380.464 152.917,379.310 152.096,379.200 151.970 C 379.090 151.843,378.415 151.399,377.699 150.983 C 375.267 149.569,375.429 149.255,381.930 142.805 C 386.882 137.890,389.931 134.545,392.325 131.400 C 394.268 128.848,393.742 127.562,389.921 125.526 C 387.170 124.059,387.185 124.147,389.134 121.043 C 389.978 119.699,390.778 118.240,390.912 117.800 C 391.046 117.360,391.509 115.988,391.940 114.751 C 393.790 109.452,393.552 103.823,391.372 101.275 C 389.119 98.644,387.362 98.264,377.285 98.229 C 367.948 98.197,368.018 98.216,368.006 95.759 C 368.003 95.076,367.884 93.411,367.743 92.059 L 367.486 89.600 365.772 89.600 C 363.517 89.600,358.215 90.292,356.200 90.849 C 346.294 93.589,338.716 97.453,333.415 102.465 C 330.841 104.899,330.968 105.154,330.668 96.916 L 330.408 89.800 329.241 88.739 C 327.955 87.569,327.253 86.159,326.236 82.703 C 325.441 79.999,324.928 79.753,320.928 80.163 C 315.940 80.674,310.959 82.510,308.538 84.729 C 306.723 86.392,306.336 86.446,303.990 85.359 L 301.879 84.381 299.239 85.964 C 292.041 90.283,286.097 97.777,282.180 107.470 L 281.505 109.140 278.797 107.170 C 277.307 106.087,275.966 105.200,275.817 105.200 C 275.668 105.200,274.957 104.750,274.236 104.200 C 272.109 102.578,271.335 102.837,267.957 106.300 C 262.500 111.895,258.288 118.325,252.761 129.500 C 250.287 134.503,250.111 134.702,248.784 133.991 C 247.187 133.137,243.603 140.527,243.595 144.691 C 243.589 147.599,243.521 147.775,239.402 155.400 C 238.332 157.380,237.131 159.540,236.732 160.200 C 236.333 160.860,235.885 161.670,235.736 162.000 C 234.769 164.140,225.029 178.807,224.047 179.600 C 223.911 179.710,222.631 181.233,221.202 182.985 C 214.989 190.601,205.089 198.535,203.982 196.785 C 203.779 196.463,203.609 192.011,203.606 186.892 L 203.600 177.584 204.657 175.892 C 205.238 174.961,208.703 169.727,212.357 164.259 C 216.011 158.792,219.180 154.024,219.400 153.664 C 219.620 153.304,220.531 151.837,221.424 150.404 C 223.861 146.496,224.478 145.118,224.006 144.646 C 223.272 143.912,223.580 142.548,224.882 140.760 C 226.844 138.066,231.725 130.870,232.405 129.669 C 232.738 129.081,233.724 127.430,234.597 126.000 C 237.954 120.501,238.207 119.510,236.638 118.035 C 235.110 116.601,235.135 115.822,236.781 113.509 C 240.342 108.504,244.378 100.149,244.394 97.749 C 244.407 95.936,243.161 93.966,240.943 92.291 C 239.712 91.361,238.256 90.231,237.706 89.781 L 236.707 88.961 238.096 86.781 C 243.755 77.895,244.454 72.005,240.402 67.352 C 239.357 66.152,239.308 65.889,239.114 60.490 C 238.770 50.932,237.160 49.887,227.000 52.625 C 225.900 52.921,224.190 53.217,223.200 53.282 L 221.400 53.400 221.385 45.600 C 221.358 31.991,220.678 28.383,218.343 29.450 C 214.628 31.147,214.739 31.225,214.000 26.400 C 211.854 12.399,202.880 13.132,190.500 28.319 C 188.795 30.410,187.003 32.589,186.518 33.161 L 185.637 34.200 185.645 25.685 C 185.653 16.193,184.918 12.122,183.457 13.583 C 182.910 14.130,181.600 14.120,181.600 13.570 C 181.600 12.130,176.121 5.211,173.611 3.482 C 171.271 1.869,168.293 3.263,165.400 7.327 C 163.485 10.017,162.906 10.330,162.384 8.958 C 161.038 5.417,153.481 1.642,149.802 2.673 " stroke="none" fill="#597023" fill-rule="evenodd"></path><path id="path1" d="M147.100 0.266 C 146.495 0.369,146.000 0.711,146.000 1.027 C 146.000 1.342,145.807 1.600,145.571 1.600 C 145.018 1.600,144.000 2.618,144.000 3.171 C 144.000 3.407,143.760 3.600,143.468 3.600 C 143.175 3.600,142.694 4.050,142.400 4.600 C 142.106 5.150,141.690 5.600,141.477 5.600 C 140.773 5.600,140.026 6.978,140.013 8.300 C 140.004 9.183,139.808 9.600,139.400 9.600 C 138.983 9.600,138.800 10.020,138.800 10.976 C 138.800 11.733,138.620 12.464,138.400 12.600 C 138.180 12.736,138.000 13.917,138.000 15.224 C 138.000 17.069,137.866 17.600,137.400 17.600 C 137.070 17.600,136.800 17.330,136.800 17.000 C 136.800 16.670,136.530 16.400,136.200 16.400 C 135.870 16.400,135.600 16.220,135.600 16.000 C 135.600 15.780,135.169 15.600,134.643 15.600 C 134.116 15.600,133.582 15.330,133.455 15.000 C 133.015 13.853,127.481 14.174,126.561 15.400 C 126.148 15.950,125.583 16.400,125.305 16.400 C 125.027 16.400,124.800 16.670,124.800 17.000 C 124.800 17.330,124.620 17.600,124.400 17.600 C 124.180 17.600,124.000 18.031,124.000 18.557 C 124.000 19.084,123.730 19.618,123.400 19.745 C 123.070 19.871,122.800 20.341,122.800 20.787 C 122.800 21.234,122.620 21.600,122.400 21.600 C 122.155 21.600,122.000 23.533,122.000 26.600 L 122.000 31.600 121.000 31.600 C 120.200 31.600,120.000 31.800,120.000 32.600 C 120.000 33.222,119.773 33.600,119.400 33.600 C 119.027 33.600,118.800 33.978,118.800 34.600 C 118.800 35.150,118.620 35.600,118.400 35.600 C 118.178 35.600,118.000 36.667,118.000 38.000 C 118.000 39.333,118.178 40.400,118.400 40.400 C 118.620 40.400,118.800 41.120,118.800 42.000 C 118.800 43.156,118.967 43.600,119.400 43.600 C 119.773 43.600,120.000 43.978,120.000 44.600 C 120.000 45.150,120.180 45.600,120.400 45.600 C 120.620 45.600,120.800 46.230,120.800 47.000 C 120.800 47.978,120.981 48.400,121.400 48.400 C 121.769 48.400,122.000 48.775,122.000 49.376 C 122.000 49.913,122.180 50.464,122.400 50.600 C 123.005 50.974,122.879 51.600,122.200 51.600 C 121.870 51.600,121.600 51.420,121.600 51.200 C 121.600 50.980,121.150 50.800,120.600 50.800 C 119.978 50.800,119.600 50.573,119.600 50.200 C 119.600 49.781,119.178 49.600,118.200 49.600 C 117.430 49.600,116.800 49.420,116.800 49.200 C 116.800 48.951,114.533 48.800,110.800 48.800 C 107.067 48.800,104.800 48.951,104.800 49.200 C 104.800 49.420,104.350 49.600,103.800 49.600 C 103.178 49.600,102.800 49.827,102.800 50.200 C 102.800 50.573,102.422 50.800,101.800 50.800 C 101.250 50.800,100.800 50.980,100.800 51.200 C 100.800 51.420,100.530 51.600,100.200 51.600 C 99.870 51.600,99.600 51.870,99.600 52.200 C 99.600 52.530,99.420 52.800,99.200 52.800 C 98.980 52.800,98.800 53.250,98.800 53.800 C 98.800 54.430,98.574 54.800,98.190 54.800 C 97.320 54.800,97.366 65.135,98.236 65.469 C 99.433 65.928,98.902 67.600,97.560 67.600 C 95.845 67.600,93.600 69.845,93.600 71.560 C 93.600 72.242,93.420 72.800,93.200 72.800 C 92.978 72.800,92.800 73.867,92.800 75.200 C 92.800 76.533,92.978 77.600,93.200 77.600 C 93.420 77.600,93.600 78.416,93.600 79.413 C 93.600 80.655,93.789 81.298,94.200 81.455 C 94.530 81.582,94.800 81.936,94.800 82.243 C 94.800 82.549,94.980 82.800,95.200 82.800 C 95.420 82.800,95.600 83.135,95.600 83.544 C 95.600 83.953,96.050 84.626,96.600 85.039 C 98.027 86.110,97.870 86.800,96.200 86.800 C 95.430 86.800,94.800 86.980,94.800 87.200 C 94.800 87.420,94.350 87.600,93.800 87.600 C 93.178 87.600,92.800 87.827,92.800 88.200 C 92.800 88.530,92.607 88.800,92.371 88.800 C 91.818 88.800,90.800 89.818,90.800 90.371 C 90.800 90.607,90.530 90.800,90.200 90.800 C 89.707 90.800,89.600 91.511,89.600 94.800 C 89.600 98.089,89.707 98.800,90.200 98.800 C 90.619 98.800,90.800 99.222,90.800 100.200 C 90.800 100.970,90.980 101.600,91.200 101.600 C 91.420 101.600,91.600 102.236,91.600 103.013 C 91.600 103.899,91.823 104.511,92.200 104.655 C 92.530 104.782,92.800 105.316,92.800 105.843 C 92.800 106.369,92.980 106.800,93.200 106.800 C 93.420 106.800,93.600 107.166,93.600 107.613 C 93.600 108.059,93.870 108.529,94.200 108.655 C 94.530 108.782,94.800 109.316,94.800 109.843 C 94.800 110.443,95.033 110.800,95.424 110.800 C 95.767 110.800,95.936 110.980,95.800 111.200 C 95.664 111.420,95.833 111.600,96.176 111.600 C 96.575 111.600,96.800 111.961,96.800 112.600 C 96.800 113.150,96.980 113.600,97.200 113.600 C 97.420 113.600,97.600 113.870,97.600 114.200 C 97.600 114.530,97.870 114.800,98.200 114.800 C 98.540 114.800,98.800 115.159,98.800 115.629 C 98.800 116.514,99.666 117.600,100.371 117.600 C 100.607 117.600,100.800 117.984,100.800 118.453 C 100.800 118.922,101.430 119.900,102.200 120.626 C 102.970 121.352,103.600 122.138,103.600 122.373 C 103.600 122.608,103.870 122.800,104.200 122.800 C 104.530 122.800,104.800 123.070,104.800 123.400 C 104.800 123.730,104.607 124.000,104.371 124.000 C 103.679 124.000,102.800 125.079,102.800 125.929 C 102.800 126.361,102.530 126.818,102.200 126.945 C 101.870 127.071,101.600 127.541,101.600 127.987 C 101.600 128.434,101.420 128.800,101.200 128.800 C 100.143 128.800,101.002 130.655,102.974 132.626 C 104.170 133.822,105.262 134.800,105.402 134.800 C 105.816 134.800,106.800 135.907,106.800 136.371 C 106.800 136.607,107.250 136.800,107.800 136.800 C 108.350 136.800,108.800 136.993,108.800 137.229 C 108.800 137.782,109.818 138.800,110.371 138.800 C 110.607 138.800,110.800 139.070,110.800 139.400 C 110.800 139.730,111.070 140.000,111.400 140.000 C 111.730 140.000,112.000 140.180,112.000 140.400 C 112.000 140.620,112.279 140.800,112.619 140.800 C 112.960 140.800,113.655 141.250,114.165 141.800 C 114.675 142.350,115.277 142.800,115.503 142.800 C 115.729 142.800,116.018 143.070,116.145 143.400 C 116.271 143.730,116.698 144.000,117.093 144.000 C 117.487 144.000,118.148 144.450,118.561 145.000 C 118.974 145.550,119.647 146.000,120.056 146.000 C 120.583 146.000,120.800 146.292,120.800 147.000 C 120.800 147.550,120.620 148.000,120.400 148.000 C 120.178 148.000,120.000 149.067,120.000 150.400 C 120.000 151.733,120.178 152.800,120.400 152.800 C 120.620 152.800,120.800 153.070,120.800 153.400 C 120.800 153.730,121.027 154.000,121.305 154.000 C 121.583 154.000,122.148 154.450,122.561 155.000 C 122.974 155.550,123.647 156.000,124.056 156.000 C 124.465 156.000,124.800 156.180,124.800 156.400 C 124.800 156.620,125.070 156.800,125.400 156.800 C 125.730 156.800,126.000 156.993,126.000 157.229 C 126.000 157.934,127.086 158.800,127.971 158.800 C 128.441 158.800,128.800 159.060,128.800 159.400 C 128.800 159.730,128.993 160.000,129.229 160.000 C 129.782 160.000,130.800 161.018,130.800 161.571 C 130.800 161.807,130.992 162.000,131.227 162.000 C 131.462 162.000,132.248 162.630,132.974 163.400 C 133.700 164.170,134.678 164.800,135.147 164.800 C 135.616 164.800,136.000 164.993,136.000 165.229 C 136.000 165.782,137.018 166.800,137.571 166.800 C 137.807 166.800,138.000 167.070,138.000 167.400 C 138.000 167.773,138.378 168.000,139.000 168.000 C 139.550 168.000,140.000 168.180,140.000 168.400 C 140.000 168.620,140.450 168.800,141.000 168.800 C 141.622 168.800,142.000 169.027,142.000 169.400 C 142.000 169.773,142.378 170.000,143.000 170.000 C 143.550 170.000,144.000 170.180,144.000 170.400 C 144.000 170.620,144.450 170.800,145.000 170.800 C 145.622 170.800,146.000 171.027,146.000 171.400 C 146.000 171.773,146.378 172.000,147.000 172.000 C 147.550 172.000,148.000 172.180,148.000 172.400 C 148.000 172.620,148.450 172.800,149.000 172.800 C 149.622 172.800,150.000 173.027,150.000 173.400 C 150.000 173.773,150.378 174.000,151.000 174.000 C 151.550 174.000,152.000 174.180,152.000 174.400 C 152.000 174.620,152.450 174.800,153.000 174.800 C 153.622 174.800,154.000 175.027,154.000 175.400 C 154.000 175.819,154.422 176.000,155.400 176.000 C 156.170 176.000,156.800 176.180,156.800 176.400 C 156.800 176.620,157.520 176.800,158.400 176.800 C 159.556 176.800,160.000 176.967,160.000 177.400 C 160.000 177.853,160.489 178.000,162.000 178.000 C 163.100 178.000,164.000 178.180,164.000 178.400 C 164.000 178.620,164.450 178.800,165.000 178.800 C 165.622 178.800,166.000 179.027,166.000 179.400 C 166.000 179.757,166.367 180.000,166.905 180.000 C 167.404 180.000,168.147 180.449,168.561 181.000 C 168.974 181.550,169.647 182.000,170.056 182.000 C 170.465 182.000,170.800 182.180,170.800 182.400 C 170.800 182.620,171.070 182.800,171.400 182.800 C 171.730 182.800,172.000 183.070,172.000 183.400 C 172.000 183.740,172.359 184.000,172.829 184.000 C 173.714 184.000,174.800 184.866,174.800 185.571 C 174.800 185.807,175.066 186.000,175.391 186.000 C 175.716 186.000,176.276 186.450,176.637 187.000 C 176.997 187.550,177.631 188.000,178.046 188.000 C 178.461 188.000,178.800 188.180,178.800 188.400 C 178.800 188.620,179.070 188.800,179.400 188.800 C 179.730 188.800,180.000 188.993,180.000 189.229 C 180.000 189.782,181.018 190.800,181.571 190.800 C 181.807 190.800,182.000 191.040,182.000 191.332 C 182.000 191.625,182.450 192.106,183.000 192.400 C 183.550 192.694,184.000 193.175,184.000 193.468 C 184.000 193.760,184.193 194.000,184.429 194.000 C 184.982 194.000,186.000 195.018,186.000 195.571 C 186.000 195.807,185.730 196.000,185.400 196.000 C 185.070 196.000,184.800 195.828,184.800 195.618 C 184.800 195.408,184.170 195.118,183.400 194.974 C 182.630 194.829,182.000 194.551,182.000 194.355 C 182.000 194.160,181.550 194.000,181.000 194.000 C 180.450 194.000,180.000 193.822,180.000 193.605 C 180.000 193.387,179.280 193.094,178.400 192.954 C 177.520 192.813,176.800 192.541,176.800 192.349 C 176.800 192.157,176.427 192.000,175.971 192.000 C 175.516 192.000,174.873 191.730,174.543 191.400 C 174.213 191.070,173.506 190.800,172.971 190.800 C 172.437 190.800,172.000 190.620,172.000 190.400 C 172.000 190.180,171.550 190.000,171.000 190.000 C 170.450 190.000,170.000 189.855,170.000 189.677 C 170.000 189.323,167.212 188.000,166.466 188.000 C 166.210 188.000,166.000 187.822,166.000 187.605 C 166.000 187.387,165.280 187.094,164.400 186.954 C 163.520 186.813,162.800 186.541,162.800 186.349 C 162.800 186.157,162.350 186.000,161.800 186.000 C 161.178 186.000,160.800 185.773,160.800 185.400 C 160.800 185.027,160.422 184.800,159.800 184.800 C 159.250 184.800,158.800 184.620,158.800 184.400 C 158.800 184.180,158.350 184.000,157.800 184.000 C 157.178 184.000,156.800 183.773,156.800 183.400 C 156.800 183.054,156.439 182.800,155.947 182.800 C 155.478 182.800,154.803 182.472,154.447 182.070 C 153.737 181.270,151.366 180.000,150.581 180.000 C 150.309 180.000,149.982 179.730,149.855 179.400 C 149.729 179.070,149.159 178.800,148.589 178.800 C 148.000 178.800,147.659 178.627,147.800 178.400 C 147.936 178.180,147.786 178.000,147.466 178.000 C 147.147 178.000,146.782 177.730,146.655 177.400 C 146.529 177.070,146.059 176.800,145.613 176.800 C 145.166 176.800,144.800 176.620,144.800 176.400 C 144.800 176.180,144.350 176.000,143.800 176.000 C 143.250 176.000,142.800 175.807,142.800 175.571 C 142.800 175.038,141.790 174.000,141.271 174.000 C 141.059 174.000,140.782 173.730,140.655 173.400 C 140.529 173.070,140.137 172.800,139.786 172.800 C 139.434 172.800,138.552 172.170,137.826 171.400 C 137.100 170.630,136.122 170.000,135.653 170.000 C 135.184 170.000,134.800 169.807,134.800 169.571 C 134.800 169.018,133.782 168.000,133.229 168.000 C 132.993 168.000,132.800 167.760,132.800 167.468 C 132.800 167.175,132.350 166.694,131.800 166.400 C 131.250 166.106,130.800 165.656,130.800 165.400 C 130.800 165.144,130.350 164.694,129.800 164.400 C 129.250 164.106,128.800 163.656,128.800 163.400 C 128.800 163.144,128.350 162.694,127.800 162.400 C 127.250 162.106,126.800 161.702,126.800 161.504 C 126.800 161.005,125.750 160.000,125.229 160.000 C 124.993 160.000,124.800 159.730,124.800 159.400 C 124.800 159.070,124.530 158.800,124.200 158.800 C 123.870 158.800,123.600 158.620,123.600 158.400 C 123.600 158.180,122.790 158.000,121.800 158.000 C 120.810 158.000,120.000 158.180,120.000 158.400 C 120.000 158.620,119.730 158.800,119.400 158.800 C 119.070 158.800,118.800 158.620,118.800 158.400 C 118.800 158.180,118.350 158.000,117.800 158.000 C 117.178 158.000,116.800 157.773,116.800 157.400 C 116.800 157.070,116.573 156.800,116.295 156.800 C 116.017 156.800,115.452 156.350,115.039 155.800 C 114.626 155.250,113.953 154.800,113.544 154.800 C 113.135 154.800,112.800 154.620,112.800 154.400 C 112.800 154.180,112.530 154.000,112.200 154.000 C 111.870 154.000,111.600 153.730,111.600 153.400 C 111.600 153.060,111.241 152.800,110.771 152.800 C 109.886 152.800,108.800 151.934,108.800 151.229 C 108.800 150.993,108.350 150.800,107.800 150.800 C 107.250 150.800,106.800 150.620,106.800 150.400 C 106.800 150.180,106.350 150.000,105.800 150.000 C 105.178 150.000,104.800 149.773,104.800 149.400 C 104.800 149.027,104.422 148.800,103.800 148.800 C 103.250 148.800,102.800 148.620,102.800 148.400 C 102.800 148.180,102.266 148.000,101.613 148.000 C 100.721 148.000,100.483 147.850,100.655 147.400 C 100.848 146.897,100.356 146.800,97.603 146.800 C 94.111 146.800,91.983 147.996,91.532 150.214 C 91.364 151.039,89.153 151.170,88.867 150.372 C 88.793 150.167,88.298 150.000,87.767 150.000 C 87.174 150.000,86.800 149.768,86.800 149.400 C 86.800 149.027,86.422 148.800,85.800 148.800 C 85.250 148.800,84.800 148.620,84.800 148.400 C 84.800 148.180,84.369 148.000,83.843 148.000 C 83.316 148.000,82.782 147.730,82.655 147.400 C 82.511 147.023,81.899 146.800,81.013 146.800 C 80.236 146.800,79.600 146.620,79.600 146.400 C 79.600 146.180,79.150 146.000,78.600 146.000 C 77.978 146.000,77.600 145.773,77.600 145.400 C 77.600 144.947,77.111 144.800,75.600 144.800 C 74.500 144.800,73.600 144.620,73.600 144.400 C 73.600 144.161,72.057 144.000,69.771 144.000 C 65.990 144.000,64.800 144.376,64.800 145.571 C 64.800 145.807,64.530 146.000,64.200 146.000 C 63.781 146.000,63.600 146.422,63.600 147.400 L 63.600 148.800 61.200 148.800 C 59.867 148.800,58.800 148.622,58.800 148.400 C 58.800 148.169,57.533 148.000,55.800 148.000 C 54.067 148.000,52.800 148.169,52.800 148.400 C 52.800 148.631,51.533 148.800,49.800 148.800 C 47.400 148.800,46.800 148.920,46.800 149.400 C 46.800 149.831,46.359 150.000,45.233 150.000 C 44.372 150.000,43.604 150.188,43.527 150.418 C 43.451 150.648,42.986 150.866,42.494 150.903 C 42.002 150.940,41.600 151.202,41.600 151.485 C 41.600 151.807,41.075 152.000,40.200 152.000 C 39.430 152.000,38.800 152.180,38.800 152.400 C 38.800 152.620,38.530 152.800,38.200 152.800 C 37.832 152.800,37.600 153.174,37.600 153.767 C 37.600 154.298,37.375 154.808,37.100 154.900 C 36.407 155.131,36.407 160.469,37.100 160.700 C 37.410 160.803,37.600 161.616,37.600 162.833 C 37.600 163.915,37.777 164.800,37.992 164.800 C 38.208 164.800,38.498 165.250,38.636 165.800 C 38.774 166.350,39.047 166.800,39.243 166.800 C 39.440 166.800,39.600 167.250,39.600 167.800 C 39.600 168.422,39.827 168.800,40.200 168.800 C 40.530 168.800,40.800 169.070,40.800 169.400 C 40.800 169.730,40.549 170.000,40.243 170.000 C 39.936 170.000,39.582 169.730,39.455 169.400 C 39.114 168.509,29.600 168.509,29.600 169.400 C 29.600 169.821,29.175 170.000,28.171 170.000 C 26.564 170.000,25.600 170.739,25.600 171.971 C 25.600 172.752,25.377 172.800,21.787 172.800 C 18.768 172.800,17.927 172.925,17.745 173.400 C 17.618 173.730,17.158 174.000,16.721 174.000 C 15.088 174.000,14.428 175.516,14.413 179.300 C 14.402 182.150,14.511 182.800,15.000 182.800 C 15.862 182.800,15.741 184.259,14.800 185.200 C 14.356 185.644,13.467 186.000,12.800 186.000 C 12.140 186.000,11.600 186.180,11.600 186.400 C 11.600 186.620,11.150 186.800,10.600 186.800 C 9.978 186.800,9.600 187.027,9.600 187.400 C 9.600 187.773,9.222 188.000,8.600 188.000 C 8.050 188.000,7.600 188.160,7.600 188.357 C 7.600 188.553,7.150 188.826,6.600 188.964 C 6.050 189.102,5.600 189.392,5.600 189.608 C 5.600 189.823,5.360 190.000,5.068 190.000 C 4.775 190.000,4.294 190.450,4.000 191.000 C 3.706 191.550,3.225 192.000,2.932 192.000 C 2.640 192.000,2.400 192.270,2.400 192.600 C 2.400 192.930,2.220 193.200,2.000 193.200 C 1.780 193.200,1.600 193.520,1.600 193.911 C 1.600 194.302,1.221 194.947,0.758 195.343 C -0.654 196.552,-0.248 204.661,1.301 206.211 C 1.906 206.815,2.400 207.465,2.400 207.655 C 2.400 207.845,2.670 208.000,3.000 208.000 C 3.330 208.000,3.600 208.193,3.600 208.429 C 3.600 208.982,4.618 210.000,5.171 210.000 C 5.407 210.000,5.600 210.193,5.600 210.429 C 5.600 210.903,6.587 212.000,7.014 212.000 C 7.163 212.000,7.639 212.450,8.071 213.000 C 8.504 213.550,9.205 214.000,9.629 214.000 C 10.185 214.000,10.400 214.279,10.400 215.000 C 10.400 215.550,10.220 216.000,10.000 216.000 C 9.780 216.000,9.600 216.900,9.600 218.000 C 9.600 219.100,9.780 220.000,10.000 220.000 C 10.220 220.000,10.403 220.315,10.407 220.700 C 10.415 221.519,12.066 223.200,12.861 223.200 C 13.163 223.200,13.748 223.650,14.161 224.200 C 14.574 224.750,15.236 225.200,15.632 225.200 C 16.029 225.200,16.464 225.380,16.600 225.600 C 16.736 225.820,17.177 226.000,17.581 226.000 C 17.984 226.000,18.418 226.270,18.545 226.600 C 18.671 226.930,19.130 227.200,19.564 227.200 C 19.998 227.200,20.464 227.380,20.600 227.600 C 20.736 227.820,21.467 228.000,22.224 228.000 C 23.079 228.000,23.600 228.195,23.600 228.515 C 23.600 228.798,24.002 229.060,24.494 229.097 C 24.986 229.134,25.451 229.352,25.527 229.582 C 25.604 229.812,26.262 230.000,26.991 230.000 C 28.542 230.000,29.135 230.967,28.210 231.989 C 27.874 232.360,27.600 233.054,27.600 233.531 C 27.600 234.009,27.379 234.355,27.109 234.300 C 26.840 234.245,26.557 234.605,26.482 235.100 C 26.406 235.595,26.177 236.000,25.972 236.000 C 25.767 236.000,25.600 236.270,25.600 236.600 C 25.600 236.930,25.423 237.200,25.208 237.200 C 24.992 237.200,24.702 237.650,24.564 238.200 C 24.426 238.750,24.153 239.200,23.957 239.200 C 23.760 239.200,23.600 239.650,23.600 240.200 C 23.600 240.822,23.373 241.200,23.000 241.200 C 22.627 241.200,22.400 241.578,22.400 242.200 C 22.400 242.750,22.220 243.200,22.000 243.200 C 21.780 243.200,21.600 243.752,21.600 244.426 C 21.600 245.895,25.410 250.000,26.774 250.000 C 27.242 250.000,27.600 250.260,27.600 250.600 C 27.600 250.973,27.978 251.200,28.600 251.200 C 29.150 251.200,29.600 251.380,29.600 251.600 C 29.600 251.820,30.236 252.000,31.013 252.000 C 31.899 252.000,32.511 252.223,32.655 252.600 C 32.824 253.039,33.516 253.200,35.243 253.200 C 36.548 253.200,37.600 253.379,37.600 253.600 C 37.600 253.820,38.050 254.000,38.600 254.000 C 39.400 254.000,39.600 254.200,39.600 255.000 C 39.600 255.622,39.827 256.000,40.200 256.000 C 40.573 256.000,40.800 256.378,40.800 257.000 C 40.800 257.550,40.980 258.000,41.200 258.000 C 41.420 258.000,41.600 258.270,41.600 258.600 C 41.600 259.097,42.357 259.200,46.013 259.200 C 49.566 259.200,50.470 259.083,50.655 258.600 C 50.831 258.142,51.583 258.000,53.843 258.000 C 55.548 258.000,56.800 257.831,56.800 257.600 C 56.800 257.378,57.867 257.200,59.200 257.200 C 61.067 257.200,61.600 257.067,61.600 256.600 C 61.600 256.147,62.089 256.000,63.600 256.000 C 64.700 256.000,65.600 255.820,65.600 255.600 C 65.600 255.380,65.870 255.200,66.200 255.200 C 66.530 255.200,66.800 255.380,66.800 255.600 C 66.800 255.820,66.530 256.000,66.200 256.000 C 65.870 256.000,65.600 256.193,65.600 256.429 C 65.600 256.982,64.582 258.000,64.029 258.000 C 63.793 258.000,63.600 258.193,63.600 258.429 C 63.600 258.982,62.582 260.000,62.029 260.000 C 61.793 260.000,61.600 260.270,61.600 260.600 C 61.600 260.973,61.222 261.200,60.600 261.200 C 60.050 261.200,59.600 261.393,59.600 261.629 C 59.600 262.182,58.582 263.200,58.029 263.200 C 57.793 263.200,57.600 263.470,57.600 263.800 C 57.600 264.130,57.420 264.400,57.200 264.400 C 56.965 264.400,56.800 265.800,56.800 267.800 C 56.800 269.800,56.965 271.200,57.200 271.200 C 57.420 271.200,57.600 271.650,57.600 272.200 C 57.600 272.750,57.420 273.200,57.200 273.200 C 56.980 273.200,56.800 273.650,56.800 274.200 C 56.800 274.822,56.573 275.200,56.200 275.200 C 55.827 275.200,55.600 275.578,55.600 276.200 C 55.600 276.750,55.420 277.200,55.200 277.200 C 54.980 277.200,54.800 277.920,54.800 278.800 C 54.800 279.956,54.633 280.400,54.200 280.400 C 53.733 280.400,53.600 280.933,53.600 282.800 C 53.600 284.667,53.733 285.200,54.200 285.200 C 54.621 285.200,54.800 285.625,54.800 286.629 C 54.800 288.026,55.517 289.200,56.371 289.200 C 56.607 289.200,56.800 289.470,56.800 289.800 C 56.800 290.173,57.178 290.400,57.800 290.400 C 58.350 290.400,58.800 290.580,58.800 290.800 C 58.800 291.020,59.411 291.200,60.157 291.200 C 60.995 291.200,61.603 291.430,61.745 291.800 C 61.902 292.211,62.545 292.400,63.787 292.400 C 64.784 292.400,65.600 292.580,65.600 292.800 C 65.600 293.043,67.400 293.200,70.200 293.200 C 74.022 293.200,74.800 293.301,74.800 293.800 C 74.800 294.280,75.400 294.400,77.800 294.400 L 80.800 294.400 80.800 296.800 C 80.800 298.133,80.978 299.200,81.200 299.200 C 81.420 299.200,81.600 299.650,81.600 300.200 C 81.600 300.988,81.803 301.200,82.557 301.200 C 83.084 301.200,83.618 301.470,83.745 301.800 C 84.050 302.595,86.350 302.595,86.655 301.800 C 86.835 301.333,87.628 301.200,90.243 301.200 C 92.214 301.200,93.600 301.035,93.600 300.800 C 93.600 300.580,94.416 300.400,95.413 300.400 C 96.655 300.400,97.298 300.211,97.455 299.800 C 97.605 299.409,98.228 299.200,99.243 299.200 C 100.099 299.200,100.800 299.020,100.800 298.800 C 100.800 298.580,101.166 298.400,101.613 298.400 C 102.059 298.400,102.529 298.130,102.655 297.800 C 102.782 297.470,103.239 297.200,103.671 297.200 C 104.521 297.200,105.600 296.321,105.600 295.629 C 105.600 295.393,106.050 295.200,106.600 295.200 C 107.150 295.200,107.600 295.020,107.600 294.800 C 107.600 294.580,107.870 294.400,108.200 294.400 C 108.693 294.400,108.800 295.111,108.800 298.400 C 108.800 300.800,108.960 302.400,109.200 302.400 C 109.420 302.400,109.600 302.690,109.600 303.044 C 109.600 303.398,110.401 304.478,111.381 305.444 L 113.162 307.200 117.381 307.200 C 119.927 307.200,121.600 307.041,121.600 306.800 C 121.600 306.580,122.031 306.400,122.557 306.400 C 123.084 306.400,123.618 306.130,123.745 305.800 C 123.871 305.470,124.223 305.200,124.526 305.200 C 125.338 305.200,127.600 304.001,127.600 303.571 C 127.600 302.964,128.695 303.150,128.945 303.800 C 129.268 304.644,133.132 304.644,133.455 303.800 C 133.582 303.470,134.116 303.200,134.643 303.200 C 135.169 303.200,135.600 303.020,135.600 302.800 C 135.600 302.580,135.870 302.400,136.200 302.400 C 136.530 302.400,136.800 302.130,136.800 301.800 C 136.800 301.470,136.993 301.200,137.229 301.200 C 137.782 301.200,138.800 300.182,138.800 299.629 C 138.800 299.393,139.136 299.200,139.546 299.200 C 140.283 299.200,144.800 295.186,144.800 294.531 C 144.800 294.345,145.159 293.968,145.598 293.694 C 146.612 293.061,148.000 294.276,148.000 295.795 C 148.000 297.708,149.086 298.400,152.089 298.400 C 154.232 298.400,154.800 298.274,154.800 297.800 C 154.800 297.470,155.042 297.200,155.339 297.200 C 156.089 297.200,158.445 295.987,159.375 295.121 C 159.802 294.725,160.297 294.400,160.475 294.400 C 160.654 294.400,160.800 294.211,160.800 293.981 C 160.800 293.750,161.250 293.145,161.800 292.635 C 162.350 292.125,162.800 291.414,162.800 291.054 C 162.800 290.694,163.070 290.400,163.400 290.400 C 163.730 290.400,164.000 290.173,164.000 289.895 C 164.000 289.617,164.447 289.054,164.992 288.645 C 165.538 288.235,165.888 287.742,165.769 287.550 C 165.650 287.357,165.833 287.200,166.176 287.200 C 166.575 287.200,166.800 286.839,166.800 286.200 C 166.800 285.578,167.027 285.200,167.400 285.200 C 167.730 285.200,168.000 284.930,168.000 284.600 C 168.000 284.270,168.180 284.000,168.400 284.000 C 168.620 284.000,168.800 283.550,168.800 283.000 C 168.800 282.450,168.993 282.000,169.229 282.000 C 169.934 282.000,170.800 280.914,170.800 280.029 C 170.800 279.559,171.060 279.200,171.400 279.200 C 171.730 279.200,172.000 279.380,172.000 279.600 C 172.000 279.820,172.611 280.000,173.357 280.000 C 174.195 280.000,174.803 280.230,174.945 280.600 C 175.071 280.930,175.541 281.200,175.987 281.200 C 176.443 281.200,176.800 280.936,176.800 280.600 C 176.800 280.270,176.993 280.000,177.229 280.000 C 177.782 280.000,178.800 278.982,178.800 278.429 C 178.800 278.193,179.070 278.000,179.400 278.000 C 179.740 278.000,180.000 277.641,180.000 277.171 C 180.000 276.286,180.866 275.200,181.571 275.200 C 181.807 275.200,182.000 274.930,182.000 274.600 C 182.000 274.270,182.180 274.000,182.400 274.000 C 182.620 274.000,182.800 273.550,182.800 273.000 C 182.800 272.378,183.027 272.000,183.400 272.000 C 183.757 272.000,184.000 271.633,184.000 271.095 C 184.000 270.596,184.449 269.853,185.000 269.439 C 185.550 269.026,186.000 268.353,186.000 267.944 C 186.000 267.535,186.180 267.200,186.400 267.200 C 186.620 267.200,186.800 266.750,186.800 266.200 C 186.800 265.578,187.027 265.200,187.400 265.200 C 187.773 265.200,188.000 264.822,188.000 264.200 C 188.000 263.650,188.180 263.200,188.400 263.200 C 188.620 263.200,188.800 262.769,188.800 262.243 C 188.800 261.716,189.070 261.182,189.400 261.055 C 189.777 260.911,190.000 260.299,190.000 259.413 C 190.000 258.636,190.180 258.000,190.400 258.000 C 190.620 258.000,190.800 257.550,190.800 257.000 C 190.800 256.378,191.027 256.000,191.400 256.000 C 191.819 256.000,192.000 255.578,192.000 254.600 C 192.000 253.830,192.180 253.200,192.400 253.200 C 192.620 253.200,192.800 252.769,192.800 252.243 C 192.800 251.716,193.070 251.182,193.400 251.055 C 193.777 250.911,194.000 250.299,194.000 249.413 C 194.000 248.636,194.180 248.000,194.400 248.000 C 194.620 248.000,194.800 247.370,194.800 246.600 C 194.800 245.622,194.981 245.200,195.400 245.200 C 195.833 245.200,196.000 244.756,196.000 243.600 C 196.000 242.720,196.180 242.000,196.400 242.000 C 196.620 242.000,196.800 241.370,196.800 240.600 C 196.800 239.622,196.981 239.200,197.400 239.200 C 197.833 239.200,198.000 238.756,198.000 237.600 C 198.000 236.720,198.180 236.000,198.400 236.000 C 198.620 236.000,198.800 235.100,198.800 234.000 C 198.800 232.489,198.947 232.000,199.400 232.000 C 199.773 232.000,200.000 231.622,200.000 231.000 C 200.000 230.378,200.227 230.000,200.600 230.000 C 201.072 230.000,201.200 230.556,201.200 232.600 C 201.200 234.067,201.374 235.200,201.600 235.200 C 201.831 235.200,202.000 236.467,202.000 238.200 C 202.000 240.600,202.120 241.200,202.600 241.200 C 203.124 241.200,203.200 243.311,203.200 257.800 C 203.200 272.289,203.124 274.400,202.600 274.400 C 202.099 274.400,202.000 275.222,202.000 279.400 C 202.000 282.467,201.845 284.400,201.600 284.400 C 201.365 284.400,201.200 285.800,201.200 287.800 C 201.200 290.556,201.086 291.200,200.600 291.200 C 200.120 291.200,200.000 291.800,200.000 294.200 C 200.000 295.850,199.845 297.200,199.656 297.200 C 199.466 297.200,199.210 298.321,199.085 299.690 C 198.961 301.060,198.666 302.245,198.430 302.323 C 198.176 302.408,198.000 303.665,198.000 305.400 C 198.000 307.287,197.833 308.389,197.531 308.490 C 197.268 308.577,196.984 309.731,196.883 311.117 C 196.785 312.476,196.546 313.490,196.352 313.371 C 196.159 313.251,196.000 314.048,196.000 315.143 C 196.000 316.238,195.807 317.198,195.570 317.277 C 195.334 317.355,195.039 318.540,194.915 319.910 C 194.790 321.279,194.534 322.400,194.344 322.400 C 194.155 322.400,194.000 323.731,194.000 325.357 C 194.000 327.617,193.858 328.369,193.400 328.545 C 192.936 328.723,192.800 329.498,192.800 331.964 C 192.800 333.718,192.620 335.264,192.400 335.400 C 192.166 335.545,192.000 337.857,192.000 340.981 C 192.000 345.353,191.892 346.356,191.400 346.545 C 190.893 346.739,190.800 348.079,190.800 355.187 C 190.800 360.529,190.654 363.600,190.400 363.600 C 190.139 363.600,190.000 369.952,190.000 381.856 L 190.000 400.111 192.100 399.859 C 193.255 399.720,194.605 399.605,195.100 399.603 C 195.632 399.601,196.000 399.355,196.000 399.000 C 196.000 398.547,196.489 398.400,198.000 398.400 C 199.100 398.400,200.000 398.220,200.000 398.000 C 200.000 397.780,200.900 397.600,202.000 397.600 L 204.000 397.600 204.000 393.600 C 204.000 391.200,203.840 389.600,203.600 389.600 C 203.344 389.600,203.200 386.133,203.200 380.000 C 203.200 373.867,203.344 370.400,203.600 370.400 C 203.852 370.400,204.000 367.657,204.000 362.971 C 204.000 356.902,204.110 355.433,204.600 354.943 C 205.063 354.480,205.200 353.302,205.200 349.771 C 205.200 346.990,205.357 345.200,205.600 345.200 C 205.842 345.200,206.000 343.481,206.000 340.843 C 206.000 337.339,206.117 336.441,206.600 336.255 C 207.068 336.076,207.200 335.277,207.200 332.613 C 207.200 330.604,207.365 329.200,207.600 329.200 C 207.829 329.200,208.000 327.990,208.000 326.371 C 208.000 324.390,208.180 323.363,208.600 322.943 C 208.969 322.574,209.200 321.593,209.200 320.395 C 209.200 319.324,209.380 318.336,209.600 318.200 C 209.820 318.064,210.000 316.453,210.000 314.619 C 210.000 312.025,210.133 311.235,210.600 311.055 C 211.064 310.877,211.200 310.099,211.200 307.613 C 211.200 305.738,211.367 304.400,211.600 304.400 C 211.837 304.400,212.000 302.948,212.000 300.843 C 212.000 298.050,212.129 297.236,212.600 297.055 C 213.068 296.876,213.200 296.077,213.200 293.413 C 213.200 291.404,213.365 290.000,213.600 290.000 C 213.840 290.000,214.000 288.400,214.000 286.000 C 214.000 282.799,214.114 282.000,214.572 282.000 C 215.027 282.000,215.148 281.205,215.165 278.102 C 215.177 275.833,215.356 274.148,215.593 274.069 C 215.835 273.988,216.000 272.229,216.000 269.738 C 216.000 266.542,216.143 265.400,216.600 264.943 C 217.496 264.047,217.496 241.153,216.600 240.257 C 216.128 239.785,216.000 238.543,216.000 234.429 C 216.000 231.210,215.846 229.200,215.600 229.200 C 215.380 229.200,215.200 228.750,215.200 228.200 C 215.200 227.650,215.380 227.200,215.600 227.200 C 215.820 227.200,216.000 227.380,216.000 227.600 C 216.000 227.820,216.270 228.000,216.600 228.000 C 216.930 228.000,217.200 228.270,217.200 228.600 C 217.200 228.930,217.380 229.200,217.600 229.200 C 217.820 229.200,218.000 229.830,218.000 230.600 C 218.000 231.578,218.181 232.000,218.600 232.000 C 219.033 232.000,219.200 232.444,219.200 233.600 C 219.200 234.480,219.380 235.200,219.600 235.200 C 219.820 235.200,220.000 235.830,220.000 236.600 C 220.000 237.578,220.181 238.000,220.600 238.000 C 220.973 238.000,221.200 238.378,221.200 239.000 C 221.200 239.550,221.380 240.000,221.600 240.000 C 221.820 240.000,222.000 240.450,222.000 241.000 C 222.000 241.622,222.227 242.000,222.600 242.000 C 222.973 242.000,223.200 242.378,223.200 243.000 C 223.200 243.550,223.380 244.000,223.600 244.000 C 223.820 244.000,224.000 244.270,224.000 244.600 C 224.000 244.930,224.270 245.200,224.600 245.200 C 224.940 245.200,225.200 245.559,225.200 246.029 C 225.200 247.090,226.110 248.000,227.171 248.000 C 227.641 248.000,228.000 248.260,228.000 248.600 C 228.000 249.072,228.556 249.200,230.600 249.200 C 232.963 249.200,233.200 249.275,233.200 250.029 C 233.200 250.914,234.066 252.000,234.771 252.000 C 235.007 252.000,235.200 252.240,235.200 252.532 C 235.200 252.825,235.650 253.306,236.200 253.600 C 236.828 253.936,237.200 254.482,237.200 255.068 C 237.200 255.580,237.380 256.000,237.600 256.000 C 237.820 256.000,238.000 256.270,238.000 256.600 C 238.000 256.930,238.193 257.200,238.429 257.200 C 238.982 257.200,240.000 258.218,240.000 258.771 C 240.000 259.007,240.270 259.200,240.600 259.200 C 241.147 259.200,241.382 259.685,241.240 260.521 C 241.166 260.960,242.243 262.000,242.771 262.000 C 243.007 262.000,243.200 262.193,243.200 262.429 C 243.200 262.982,244.218 264.000,244.771 264.000 C 245.007 264.000,245.200 264.193,245.200 264.429 C 245.200 264.982,246.218 266.000,246.771 266.000 C 247.007 266.000,247.200 266.193,247.200 266.429 C 247.200 267.360,248.409 268.000,250.171 268.000 C 251.177 268.000,252.000 267.820,252.000 267.600 C 252.000 267.380,252.450 267.200,253.000 267.200 C 253.622 267.200,254.000 266.973,254.000 266.600 C 254.000 266.270,254.270 266.000,254.600 266.000 C 254.973 266.000,255.200 265.622,255.200 265.000 C 255.200 263.591,255.220 263.604,259.243 267.600 L 262.867 271.200 265.434 271.200 C 267.448 271.200,268.000 271.071,268.000 270.600 C 268.000 270.234,268.373 270.000,268.957 270.000 C 269.484 270.000,270.018 270.270,270.145 270.600 C 270.271 270.930,270.741 271.200,271.187 271.200 C 271.634 271.200,272.000 271.380,272.000 271.600 C 272.000 271.820,272.270 272.000,272.600 272.000 C 272.930 272.000,273.200 272.270,273.200 272.600 C 273.200 272.973,273.578 273.200,274.200 273.200 C 274.750 273.200,275.200 273.380,275.200 273.600 C 275.200 273.820,275.650 274.000,276.200 274.000 C 276.822 274.000,277.200 274.227,277.200 274.600 C 277.200 274.973,277.578 275.200,278.200 275.200 C 278.750 275.200,279.200 275.380,279.200 275.600 C 279.200 275.820,279.920 276.000,280.800 276.000 C 281.956 276.000,282.400 276.167,282.400 276.600 C 282.400 277.067,282.933 277.200,284.800 277.200 C 286.667 277.200,287.200 277.067,287.200 276.600 C 287.200 276.227,287.578 276.000,288.200 276.000 C 288.750 276.000,289.200 275.820,289.200 275.600 C 289.200 275.380,289.470 275.200,289.800 275.200 C 290.130 275.200,290.400 275.007,290.400 274.771 C 290.400 274.218,291.418 273.200,291.971 273.200 C 292.207 273.200,292.400 272.930,292.400 272.600 C 292.400 271.775,295.028 271.775,295.345 272.600 C 295.489 272.977,296.101 273.200,296.987 273.200 C 297.764 273.200,298.400 273.380,298.400 273.600 C 298.400 273.820,299.030 274.000,299.800 274.000 C 300.778 274.000,301.200 274.181,301.200 274.600 C 301.200 275.101,302.022 275.200,306.200 275.200 C 310.378 275.200,311.200 275.101,311.200 274.600 C 311.200 274.227,311.578 274.000,312.200 274.000 C 312.750 274.000,313.200 273.820,313.200 273.600 C 313.200 273.380,313.470 273.200,313.800 273.200 C 314.130 273.200,314.400 272.930,314.400 272.600 C 314.400 272.227,314.778 272.000,315.400 272.000 C 315.950 272.000,316.400 271.820,316.400 271.600 C 316.400 271.365,317.800 271.200,319.800 271.200 C 322.556 271.200,323.200 271.086,323.200 270.600 C 323.200 270.167,323.644 270.000,324.800 270.000 C 325.680 270.000,326.400 269.820,326.400 269.600 C 326.400 269.380,326.688 269.200,327.040 269.200 C 329.055 269.200,330.400 266.654,330.400 262.840 C 330.400 259.871,330.289 259.200,329.800 259.200 C 329.347 259.200,329.200 258.711,329.200 257.200 C 329.200 256.100,329.020 255.200,328.800 255.200 C 328.580 255.200,328.400 254.750,328.400 254.200 C 328.400 253.578,328.173 253.200,327.800 253.200 C 327.383 253.200,327.200 252.780,327.200 251.824 C 327.200 251.067,327.020 250.336,326.800 250.200 C 326.580 250.064,326.400 249.598,326.400 249.164 C 326.400 248.730,326.130 248.271,325.800 248.145 C 325.470 248.018,325.200 247.499,325.200 246.991 C 325.200 246.482,324.975 245.986,324.700 245.888 C 324.409 245.784,324.348 245.561,324.555 245.355 C 324.761 245.148,324.984 245.209,325.088 245.500 C 325.206 245.829,326.142 246.000,327.833 246.000 C 329.848 246.000,330.400 246.129,330.400 246.600 C 330.400 247.067,330.933 247.200,332.800 247.200 C 334.133 247.200,335.200 247.378,335.200 247.600 C 335.200 247.837,336.667 248.000,338.800 248.000 C 341.733 248.000,342.400 248.111,342.400 248.600 C 342.400 249.110,343.444 249.200,349.400 249.200 C 355.356 249.200,356.400 249.110,356.400 248.600 C 356.400 248.154,356.870 248.000,358.229 248.000 C 359.991 248.000,361.200 247.360,361.200 246.429 C 361.200 246.193,361.470 246.000,361.800 246.000 C 362.293 246.000,362.400 245.289,362.400 242.000 C 362.400 239.600,362.240 238.000,362.000 238.000 C 361.780 238.000,361.600 237.370,361.600 236.600 L 361.600 235.200 364.000 235.200 C 365.320 235.200,366.503 235.245,366.628 235.300 C 366.754 235.355,367.033 235.085,367.248 234.700 C 367.528 234.199,368.139 234.000,369.396 234.000 C 370.362 234.000,371.264 233.820,371.400 233.600 C 371.536 233.380,372.002 233.200,372.436 233.200 C 372.870 233.200,373.329 232.930,373.455 232.600 C 373.582 232.270,374.116 232.000,374.643 232.000 C 375.169 232.000,375.600 231.820,375.600 231.600 C 375.600 231.380,375.866 231.200,376.192 231.200 C 377.124 231.200,382.400 225.792,382.400 224.836 C 382.400 224.376,382.605 224.000,382.856 224.000 C 383.985 224.000,384.375 222.551,384.387 218.300 C 384.395 215.692,384.243 214.000,384.000 214.000 C 383.780 214.000,383.600 213.661,383.600 213.246 C 383.600 212.831,383.150 212.197,382.600 211.837 C 382.050 211.476,381.600 210.916,381.600 210.591 C 381.600 210.266,381.330 210.000,381.000 210.000 C 380.670 210.000,380.400 209.820,380.400 209.600 C 380.400 209.380,380.136 209.200,379.813 209.200 C 379.455 209.200,379.315 208.965,379.455 208.600 C 379.582 208.270,379.473 208.000,379.214 208.000 C 378.625 208.000,377.600 207.002,377.600 206.429 C 377.600 206.193,377.420 206.000,377.200 206.000 C 376.389 206.000,373.600 202.793,373.600 201.861 C 373.600 200.761,372.370 199.200,371.502 199.200 C 371.170 199.200,370.674 198.930,370.400 198.600 C 370.126 198.270,369.564 198.000,369.151 198.000 C 368.738 198.000,368.400 197.823,368.400 197.608 C 368.400 197.392,367.950 197.102,367.400 196.964 C 366.850 196.826,366.400 196.553,366.400 196.357 C 366.400 196.160,365.950 196.000,365.400 196.000 C 364.850 196.000,364.400 195.826,364.400 195.614 C 364.400 195.401,363.500 195.108,362.400 194.962 C 361.300 194.816,360.400 194.540,360.400 194.348 C 360.400 194.157,359.680 194.000,358.800 194.000 C 357.644 194.000,357.200 193.833,357.200 193.400 C 357.200 192.928,357.756 192.800,359.800 192.800 C 361.267 192.800,362.400 192.626,362.400 192.400 C 362.400 192.180,363.300 192.000,364.400 192.000 C 365.911 192.000,366.400 191.853,366.400 191.400 C 366.400 190.981,366.822 190.800,367.800 190.800 C 368.570 190.800,369.200 190.620,369.200 190.400 C 369.200 190.180,369.656 190.000,370.213 190.000 C 370.769 190.000,371.329 189.730,371.455 189.400 C 371.582 189.070,372.116 188.800,372.643 188.800 C 373.169 188.800,373.600 188.620,373.600 188.400 C 373.600 188.180,374.050 188.000,374.600 188.000 C 375.222 188.000,375.600 187.773,375.600 187.400 C 375.600 187.060,375.959 186.800,376.429 186.800 C 377.314 186.800,378.400 185.934,378.400 185.229 C 378.400 184.993,378.593 184.800,378.829 184.800 C 379.724 184.800,380.400 183.596,380.400 182.003 C 380.400 180.390,383.917 176.000,385.209 176.000 C 385.424 176.000,385.600 175.807,385.600 175.571 C 385.600 175.018,386.618 174.000,387.171 174.000 C 387.407 174.000,387.600 173.730,387.600 173.400 C 387.600 173.070,387.915 172.794,388.300 172.787 C 389.122 172.772,390.400 171.881,390.400 171.323 C 390.400 171.110,390.850 170.694,391.400 170.400 C 392.028 170.064,392.400 169.518,392.400 168.932 C 392.400 168.370,392.638 168.000,393.000 168.000 C 393.330 168.000,393.600 167.730,393.600 167.400 C 393.600 167.070,393.780 166.800,394.000 166.800 C 394.235 166.800,394.400 165.400,394.400 163.400 C 394.400 161.400,394.235 160.000,394.000 160.000 C 393.780 160.000,393.600 159.634,393.600 159.187 C 393.600 158.741,393.330 158.271,393.000 158.145 C 392.670 158.018,392.400 157.729,392.400 157.501 C 392.400 156.923,391.138 156.028,390.300 156.013 C 389.915 156.006,389.600 155.730,389.600 155.400 C 389.600 155.070,389.373 154.800,389.095 154.800 C 388.817 154.800,388.252 154.350,387.839 153.800 C 387.426 153.250,386.753 152.800,386.344 152.800 C 385.935 152.800,385.600 152.620,385.600 152.400 C 385.600 152.180,385.330 152.000,385.000 152.000 C 384.670 152.000,384.400 151.730,384.400 151.400 C 384.400 151.054,384.039 150.800,383.547 150.800 C 382.513 150.800,381.166 149.354,381.468 148.568 C 381.588 148.255,381.846 148.000,382.043 148.000 C 382.239 148.000,382.400 147.730,382.400 147.400 C 382.400 147.070,382.593 146.800,382.829 146.800 C 383.382 146.800,384.400 145.782,384.400 145.229 C 384.400 144.993,384.593 144.800,384.829 144.800 C 385.382 144.800,386.400 143.782,386.400 143.229 C 386.400 142.993,386.593 142.800,386.829 142.800 C 387.382 142.800,388.400 141.782,388.400 141.229 C 388.400 140.993,388.593 140.800,388.829 140.800 C 389.382 140.800,390.400 139.782,390.400 139.229 C 390.400 138.993,390.670 138.800,391.000 138.800 C 391.330 138.800,391.600 138.530,391.600 138.200 C 391.600 137.870,391.780 137.600,392.000 137.600 C 392.220 137.600,392.400 137.240,392.400 136.800 C 392.400 136.356,392.667 136.000,393.000 136.000 C 393.330 136.000,393.600 135.796,393.600 135.546 C 393.600 135.296,394.050 134.675,394.600 134.165 C 395.150 133.655,395.600 132.970,395.600 132.643 C 395.600 132.315,395.780 131.936,396.000 131.800 C 396.220 131.664,396.400 130.303,396.400 128.776 C 396.400 127.192,396.228 126.000,396.000 126.000 C 395.780 126.000,395.600 125.730,395.600 125.400 C 395.600 125.070,395.414 124.800,395.187 124.800 C 394.959 124.800,394.239 124.254,393.587 123.586 C 392.322 122.293,392.008 120.800,393.000 120.800 C 393.373 120.800,393.600 120.422,393.600 119.800 C 393.600 119.250,393.780 118.800,394.000 118.800 C 394.220 118.800,394.400 118.369,394.400 117.843 C 394.400 117.316,394.670 116.782,395.000 116.655 C 395.442 116.486,395.600 115.788,395.600 114.013 C 395.600 112.671,395.778 111.600,396.000 111.600 C 396.240 111.600,396.400 110.000,396.400 107.600 C 396.400 105.200,396.240 103.600,396.000 103.600 C 395.780 103.600,395.600 102.886,395.600 102.014 C 395.600 100.472,393.597 97.618,392.713 97.900 C 392.541 97.955,392.400 97.730,392.400 97.400 C 392.400 97.034,392.027 96.800,391.443 96.800 C 390.916 96.800,390.382 96.530,390.255 96.200 C 390.089 95.767,389.410 95.600,387.813 95.600 C 386.596 95.600,385.600 95.420,385.600 95.200 C 385.600 94.949,383.030 94.800,378.689 94.800 C 370.259 94.800,370.400 94.882,370.400 89.995 L 370.400 86.800 364.400 86.800 C 360.667 86.800,358.400 86.951,358.400 87.200 C 358.400 87.422,357.333 87.600,356.000 87.600 C 354.133 87.600,353.600 87.733,353.600 88.200 C 353.600 88.633,353.156 88.800,352.000 88.800 C 351.120 88.800,350.400 88.980,350.400 89.200 C 350.400 89.420,349.764 89.600,348.987 89.600 C 348.101 89.600,347.489 89.823,347.345 90.200 C 347.203 90.570,346.595 90.800,345.757 90.800 C 345.011 90.800,344.400 90.980,344.400 91.200 C 344.400 91.420,344.034 91.600,343.587 91.600 C 343.141 91.600,342.671 91.870,342.545 92.200 C 342.418 92.530,341.949 92.800,341.503 92.800 C 341.057 92.800,340.275 93.250,339.765 93.800 C 339.255 94.350,338.470 94.800,338.019 94.800 C 337.569 94.800,337.200 94.980,337.200 95.200 C 337.200 95.420,336.975 95.603,336.700 95.606 C 336.425 95.610,335.570 96.168,334.800 96.847 L 333.400 98.082 333.289 92.441 L 333.178 86.800 332.189 86.800 C 331.577 86.800,331.200 86.572,331.200 86.200 C 331.200 85.870,331.020 85.600,330.800 85.600 C 330.580 85.600,330.400 85.150,330.400 84.600 C 330.400 83.978,330.173 83.600,329.800 83.600 C 329.347 83.600,329.200 83.111,329.200 81.600 C 329.200 80.500,329.033 79.600,328.828 79.600 C 328.623 79.600,328.398 79.195,328.328 78.700 C 328.246 78.122,327.878 77.754,327.300 77.672 C 326.805 77.602,326.400 77.377,326.400 77.172 C 326.400 76.967,324.780 76.800,322.800 76.800 C 320.667 76.800,319.200 76.963,319.200 77.200 C 319.200 77.422,318.133 77.600,316.800 77.600 C 314.933 77.600,314.400 77.733,314.400 78.200 C 314.400 78.633,313.956 78.800,312.800 78.800 C 311.920 78.800,311.200 78.980,311.200 79.200 C 311.200 79.420,310.834 79.600,310.387 79.600 C 309.941 79.600,309.471 79.870,309.345 80.200 C 309.218 80.530,308.761 80.800,308.329 80.800 C 307.479 80.800,306.400 81.679,306.400 82.371 C 306.400 82.607,306.130 82.800,305.800 82.800 C 305.470 82.800,305.200 82.530,305.200 82.200 C 305.200 81.827,304.822 81.600,304.200 81.600 C 303.650 81.600,303.200 81.420,303.200 81.200 C 303.200 80.980,302.570 80.800,301.800 80.800 C 301.030 80.800,300.400 80.980,300.400 81.200 C 300.400 81.420,300.130 81.600,299.800 81.600 C 299.470 81.600,299.200 81.870,299.200 82.200 C 299.200 82.540,298.841 82.800,298.371 82.800 C 297.486 82.800,296.400 83.666,296.400 84.371 C 296.400 84.607,295.950 84.800,295.400 84.800 C 294.850 84.800,294.400 84.980,294.400 85.200 C 294.400 85.420,294.130 85.600,293.800 85.600 C 293.470 85.600,293.200 85.793,293.200 86.029 C 293.200 86.582,292.182 87.600,291.629 87.600 C 291.393 87.600,291.200 87.793,291.200 88.029 C 291.200 88.582,290.182 89.600,289.629 89.600 C 289.393 89.600,289.200 89.793,289.200 90.029 C 289.200 90.582,288.182 91.600,287.629 91.600 C 287.393 91.600,287.200 91.827,287.200 92.105 C 287.200 92.383,286.750 92.948,286.200 93.361 C 285.650 93.774,285.200 94.447,285.200 94.856 C 285.200 95.265,285.020 95.600,284.800 95.600 C 284.580 95.600,284.400 95.870,284.400 96.200 C 284.400 96.530,284.130 96.800,283.800 96.800 C 283.427 96.800,283.200 97.178,283.200 97.800 C 283.200 98.350,283.020 98.800,282.800 98.800 C 282.580 98.800,282.400 99.231,282.400 99.757 C 282.400 100.284,282.130 100.818,281.800 100.945 C 281.470 101.071,281.200 101.541,281.200 101.987 C 281.200 102.434,281.020 102.800,280.800 102.800 C 280.580 102.800,280.386 103.295,280.368 103.900 C 280.350 104.543,280.240 104.754,280.104 104.407 C 279.720 103.429,278.907 102.800,278.029 102.800 C 277.559 102.800,277.200 102.540,277.200 102.200 C 277.200 101.870,276.930 101.600,276.600 101.600 C 276.270 101.600,276.000 101.420,276.000 101.200 C 276.000 100.980,275.550 100.800,275.000 100.800 C 274.378 100.800,274.000 100.573,274.000 100.200 C 274.000 99.747,273.511 99.600,272.000 99.600 C 270.859 99.600,270.000 99.782,270.000 100.024 C 270.000 100.257,269.820 100.336,269.600 100.200 C 269.380 100.064,269.200 100.113,269.200 100.309 C 269.200 100.505,268.750 100.906,268.200 101.200 C 267.650 101.494,267.200 101.975,267.200 102.268 C 267.200 102.560,267.007 102.800,266.771 102.800 C 266.218 102.800,265.200 103.818,265.200 104.371 C 265.200 104.607,264.960 104.800,264.668 104.800 C 264.375 104.800,263.894 105.250,263.600 105.800 C 263.306 106.350,262.905 106.800,262.709 106.800 C 262.513 106.800,262.464 106.980,262.600 107.200 C 262.736 107.420,262.657 107.600,262.424 107.600 C 262.191 107.600,262.000 107.792,262.000 108.027 C 262.000 108.262,261.370 109.048,260.600 109.774 C 259.830 110.500,259.200 111.478,259.200 111.947 C 259.200 112.439,258.946 112.800,258.600 112.800 C 258.270 112.800,258.000 113.070,258.000 113.400 C 258.000 113.730,257.820 114.000,257.600 114.000 C 257.380 114.000,257.200 114.366,257.200 114.813 C 257.200 115.259,256.931 115.728,256.602 115.854 C 256.274 115.981,256.104 116.245,256.226 116.442 C 256.348 116.639,256.179 116.800,255.850 116.800 C 255.496 116.800,255.202 117.248,255.127 117.900 C 255.055 118.519,254.781 118.956,254.500 118.900 C 254.207 118.841,254.000 119.213,254.000 119.800 C 254.000 120.350,253.820 120.800,253.600 120.800 C 253.380 120.800,253.200 121.250,253.200 121.800 C 253.200 122.422,252.973 122.800,252.600 122.800 C 252.270 122.800,252.000 123.070,252.000 123.400 C 252.000 123.730,251.820 124.000,251.600 124.000 C 251.380 124.000,251.200 124.431,251.200 124.957 C 251.200 125.484,250.930 126.018,250.600 126.145 C 250.270 126.271,250.000 126.741,250.000 127.187 C 250.000 127.634,249.820 128.000,249.600 128.000 C 249.380 128.000,249.200 128.450,249.200 129.000 C 249.200 129.880,249.029 130.000,247.771 130.000 C 246.164 130.000,245.200 130.739,245.200 131.971 C 245.200 132.441,244.940 132.800,244.600 132.800 C 244.270 132.800,244.000 133.070,244.000 133.400 C 244.000 133.730,243.820 134.000,243.600 134.000 C 243.380 134.000,243.200 134.450,243.200 135.000 C 243.200 135.622,242.973 136.000,242.600 136.000 C 242.181 136.000,242.000 136.422,242.000 137.400 C 242.000 138.170,241.820 138.800,241.600 138.800 C 241.363 138.800,241.200 140.267,241.200 142.400 C 241.200 145.333,241.089 146.000,240.600 146.000 C 240.227 146.000,240.000 146.378,240.000 147.000 C 240.000 147.550,239.820 148.000,239.600 148.000 C 239.380 148.000,239.200 148.450,239.200 149.000 C 239.200 149.622,238.973 150.000,238.600 150.000 C 238.227 150.000,238.000 150.378,238.000 151.000 C 238.000 151.550,237.820 152.000,237.600 152.000 C 237.380 152.000,237.200 152.450,237.200 153.000 C 237.200 153.622,236.973 154.000,236.600 154.000 C 236.243 154.000,236.000 154.367,236.000 154.905 C 236.000 155.404,235.551 156.147,235.000 156.561 C 234.450 156.974,234.000 157.647,234.000 158.056 C 234.000 158.465,233.820 158.800,233.600 158.800 C 233.380 158.800,233.200 159.250,233.200 159.800 C 233.200 160.422,232.973 160.800,232.600 160.800 C 232.227 160.800,232.000 161.178,232.000 161.800 C 232.000 162.350,231.820 162.800,231.600 162.800 C 231.380 162.800,231.200 163.070,231.200 163.400 C 231.200 163.730,230.930 164.000,230.600 164.000 C 230.243 164.000,230.000 164.367,230.000 164.905 C 230.000 165.404,229.551 166.147,229.000 166.561 C 228.450 166.974,228.000 167.647,228.000 168.056 C 228.000 168.465,227.820 168.800,227.600 168.800 C 227.380 168.800,227.200 169.070,227.200 169.400 C 227.200 169.730,226.930 170.000,226.600 170.000 C 226.243 170.000,226.000 170.367,226.000 170.905 C 226.000 171.404,225.551 172.147,225.000 172.561 C 224.450 172.974,224.000 173.647,224.000 174.056 C 224.000 174.465,223.820 174.800,223.600 174.800 C 223.380 174.800,223.200 175.070,223.200 175.400 C 223.200 175.730,222.919 176.000,222.576 176.000 C 222.233 176.000,222.052 176.161,222.174 176.358 C 222.296 176.555,222.126 176.819,221.798 176.946 C 221.469 177.072,221.200 177.541,221.200 177.987 C 221.200 178.443,220.936 178.800,220.600 178.800 C 220.270 178.800,220.000 178.983,220.000 179.206 C 220.000 179.429,218.470 181.141,216.600 183.011 C 214.730 184.881,213.200 186.589,213.200 186.806 C 213.200 187.023,213.008 187.200,212.773 187.200 C 212.538 187.200,211.276 188.280,209.968 189.600 C 206.167 193.437,206.000 193.267,206.000 185.558 C 206.000 179.162,206.007 179.109,207.000 178.329 C 207.550 177.896,208.000 177.214,208.000 176.814 C 208.000 176.413,208.270 175.982,208.600 175.855 C 208.930 175.729,209.200 175.259,209.200 174.813 C 209.200 174.366,209.380 174.000,209.600 174.000 C 209.820 174.000,210.000 173.749,210.000 173.443 C 210.000 173.136,210.270 172.782,210.600 172.655 C 210.930 172.529,211.200 172.102,211.200 171.707 C 211.200 171.313,211.650 170.652,212.200 170.239 C 212.750 169.826,213.200 169.153,213.200 168.744 C 213.200 168.335,213.380 168.000,213.600 168.000 C 213.820 168.000,214.000 167.730,214.000 167.400 C 214.000 167.070,214.270 166.800,214.600 166.800 C 214.973 166.800,215.200 166.422,215.200 165.800 C 215.200 165.250,215.380 164.800,215.600 164.800 C 215.820 164.800,216.000 164.530,216.000 164.200 C 216.000 163.870,216.221 163.645,216.491 163.700 C 216.760 163.755,217.043 163.395,217.118 162.900 C 217.194 162.405,217.423 162.000,217.628 162.000 C 217.833 162.000,218.000 161.730,218.000 161.400 C 218.000 161.070,218.270 160.800,218.600 160.800 C 218.957 160.800,219.200 160.433,219.200 159.895 C 219.200 159.396,219.649 158.653,220.200 158.239 C 220.750 157.826,221.200 157.153,221.200 156.744 C 221.200 156.335,221.380 156.000,221.600 156.000 C 221.820 156.000,222.000 155.730,222.000 155.400 C 222.000 155.070,222.270 154.800,222.600 154.800 C 222.957 154.800,223.200 154.433,223.200 153.895 C 223.200 153.396,223.649 152.653,224.200 152.239 C 224.750 151.826,225.200 151.153,225.200 150.744 C 225.200 150.335,225.380 150.000,225.600 150.000 C 225.820 150.000,226.000 149.569,226.000 149.043 C 226.000 148.516,226.270 147.982,226.600 147.855 C 227.042 147.686,227.200 146.988,227.200 145.213 C 227.200 143.871,227.378 142.800,227.600 142.800 C 227.820 142.800,228.000 142.350,228.000 141.800 C 228.000 141.250,228.193 140.800,228.429 140.800 C 228.962 140.800,230.000 139.790,230.000 139.271 C 230.000 139.059,230.270 138.782,230.600 138.655 C 230.930 138.529,231.200 138.125,231.200 137.758 C 231.200 137.392,231.650 136.675,232.200 136.165 C 232.750 135.655,233.200 134.960,233.200 134.619 C 233.200 134.279,233.380 134.000,233.600 134.000 C 233.820 134.000,234.000 133.749,234.000 133.443 C 234.000 133.136,234.270 132.782,234.600 132.655 C 234.930 132.529,235.200 132.059,235.200 131.613 C 235.200 131.166,235.380 130.800,235.600 130.800 C 235.820 130.800,236.000 130.350,236.000 129.800 C 236.000 129.178,236.227 128.800,236.600 128.800 C 236.930 128.800,237.200 128.530,237.200 128.200 C 237.200 127.870,237.380 127.600,237.600 127.600 C 237.820 127.600,238.000 127.234,238.000 126.787 C 238.000 126.341,238.270 125.871,238.600 125.745 C 238.930 125.618,239.200 125.084,239.200 124.557 C 239.200 124.031,239.380 123.600,239.600 123.600 C 239.839 123.600,240.000 122.067,240.000 119.800 C 240.000 117.533,239.839 116.000,239.600 116.000 C 239.380 116.000,239.200 115.730,239.200 115.400 C 239.200 115.070,239.380 114.800,239.600 114.800 C 239.820 114.800,240.000 114.530,240.000 114.200 C 240.000 113.870,240.270 113.600,240.600 113.600 C 240.957 113.600,241.200 113.233,241.200 112.695 C 241.200 112.196,241.649 111.453,242.200 111.039 C 242.750 110.626,243.200 109.953,243.200 109.544 C 243.200 109.135,243.380 108.800,243.600 108.800 C 243.820 108.800,244.000 108.350,244.000 107.800 C 244.000 107.178,244.227 106.800,244.600 106.800 C 244.973 106.800,245.200 106.422,245.200 105.800 C 245.200 105.250,245.380 104.800,245.600 104.800 C 245.820 104.800,246.000 104.080,246.000 103.200 C 246.000 102.044,246.167 101.600,246.600 101.600 C 247.093 101.600,247.200 100.889,247.200 97.600 C 247.200 94.311,247.093 93.600,246.600 93.600 C 246.260 93.600,246.000 93.241,246.000 92.771 C 246.000 91.886,245.134 90.800,244.429 90.800 C 244.193 90.800,244.000 90.530,244.000 90.200 C 244.000 89.860,243.641 89.600,243.171 89.600 C 242.286 89.600,241.200 88.734,241.200 88.029 C 241.200 87.793,241.380 87.600,241.600 87.600 C 241.820 87.600,242.000 87.150,242.000 86.600 C 242.000 85.978,242.227 85.600,242.600 85.600 C 242.973 85.600,243.200 85.222,243.200 84.600 C 243.200 84.050,243.380 83.600,243.600 83.600 C 243.820 83.600,244.000 83.150,244.000 82.600 C 244.000 81.978,244.227 81.600,244.600 81.600 C 245.052 81.600,245.200 81.114,245.200 79.624 C 245.200 78.537,245.380 77.536,245.600 77.400 C 245.821 77.263,246.000 75.463,246.000 73.376 C 246.000 71.125,245.838 69.600,245.600 69.600 C 245.380 69.600,245.200 69.150,245.200 68.600 C 245.200 67.978,244.973 67.600,244.600 67.600 C 244.260 67.600,244.000 67.241,244.000 66.771 C 244.000 65.886,243.134 64.800,242.429 64.800 C 242.144 64.800,242.000 62.916,242.000 59.200 C 242.000 55.733,241.848 53.600,241.600 53.600 C 241.380 53.600,241.200 53.150,241.200 52.600 C 241.200 51.978,240.973 51.600,240.600 51.600 C 240.227 51.600,240.000 51.222,240.000 50.600 C 240.000 49.800,239.800 49.600,239.000 49.600 C 238.450 49.600,238.000 49.420,238.000 49.200 C 238.000 48.958,236.267 48.800,233.600 48.800 C 230.933 48.800,229.200 48.958,229.200 49.200 C 229.200 49.426,228.067 49.600,226.600 49.600 L 224.000 49.600 224.000 40.224 C 224.000 34.404,223.848 30.753,223.600 30.600 C 223.380 30.464,223.200 29.733,223.200 28.976 C 223.200 28.067,223.011 27.600,222.643 27.600 C 222.336 27.600,221.986 27.339,221.863 27.021 C 221.713 26.628,220.892 26.402,219.320 26.321 L 217.000 26.200 217.130 24.900 C 217.227 23.928,217.101 23.600,216.630 23.600 C 216.162 23.600,216.000 23.190,216.000 22.000 C 216.000 21.120,215.833 20.400,215.628 20.400 C 215.423 20.400,215.194 19.995,215.118 19.500 C 215.043 19.005,214.760 18.645,214.491 18.700 C 214.217 18.756,214.000 18.396,214.000 17.888 C 214.000 16.863,211.624 14.400,210.634 14.400 C 210.286 14.400,210.000 14.220,210.000 14.000 C 210.000 13.760,208.400 13.600,206.000 13.600 C 203.600 13.600,202.000 13.760,202.000 14.000 C 202.000 14.220,201.550 14.400,201.000 14.400 C 200.423 14.400,200.042 14.607,200.100 14.891 C 200.155 15.160,199.766 15.447,199.235 15.527 C 198.190 15.685,197.200 16.485,197.200 17.171 C 197.200 17.407,197.021 17.600,196.803 17.600 C 196.585 17.600,194.740 19.255,192.703 21.278 L 189.000 24.956 188.880 22.678 C 188.814 21.425,188.589 20.400,188.380 20.400 C 188.167 20.400,188.000 18.754,188.000 16.656 C 188.000 13.129,187.942 12.868,187.000 12.161 C 186.450 11.748,186.000 11.183,186.000 10.905 C 186.000 10.582,185.422 10.400,184.400 10.400 C 183.048 10.400,182.800 10.271,182.800 9.571 C 182.800 8.686,181.934 7.600,181.229 7.600 C 180.993 7.600,180.800 7.150,180.800 6.600 C 180.800 6.050,180.620 5.600,180.400 5.600 C 180.180 5.600,180.000 5.330,180.000 5.000 C 180.000 4.670,179.807 4.400,179.571 4.400 C 179.018 4.400,178.000 3.382,178.000 2.829 C 178.000 2.593,177.796 2.400,177.547 2.400 C 177.297 2.400,176.678 1.917,176.171 1.327 C 174.701 -0.384,168.044 -0.314,166.533 1.427 C 165.973 2.072,165.354 2.555,165.158 2.500 C 164.961 2.445,164.800 2.593,164.800 2.829 C 164.800 3.382,163.782 4.400,163.229 4.400 C 162.993 4.400,162.800 4.220,162.800 4.000 C 162.800 3.780,162.350 3.600,161.800 3.600 C 161.250 3.600,160.800 3.407,160.800 3.171 C 160.800 2.514,159.738 1.600,158.973 1.600 C 158.596 1.600,158.059 1.287,157.779 0.904 C 157.266 0.202,150.025 -0.230,147.100 0.266 M156.648 3.842 C 159.123 5.094,161.835 7.513,162.384 8.958 C 162.906 10.330,163.485 10.017,165.400 7.327 C 168.293 3.263,171.271 1.869,173.611 3.482 C 176.121 5.211,181.600 12.130,181.600 13.570 C 181.600 14.120,182.910 14.130,183.457 13.583 C 184.918 12.122,185.653 16.193,185.645 25.685 L 185.637 34.200 186.518 33.161 C 187.003 32.589,188.795 30.410,190.500 28.319 C 196.079 21.475,202.941 16.000,205.940 16.000 C 209.683 16.000,213.077 20.380,214.000 26.400 C 214.739 31.225,214.628 31.147,218.343 29.450 C 220.678 28.383,221.358 31.991,221.385 45.600 L 221.400 53.400 223.200 53.282 C 224.190 53.217,225.900 52.921,227.000 52.625 C 237.160 49.887,238.770 50.932,239.114 60.490 C 239.308 65.889,239.357 66.152,240.402 67.352 C 244.454 72.005,243.755 77.895,238.096 86.781 L 236.707 88.961 237.706 89.781 C 238.256 90.231,239.712 91.361,240.943 92.291 C 243.161 93.966,244.407 95.936,244.394 97.749 C 244.378 100.149,240.342 108.504,236.781 113.509 C 235.135 115.822,235.110 116.601,236.638 118.035 C 238.207 119.510,237.954 120.501,234.597 126.000 C 233.724 127.430,232.738 129.081,232.405 129.669 C 231.725 130.870,226.844 138.066,224.882 140.760 C 223.580 142.548,223.272 143.912,224.006 144.646 C 224.478 145.118,223.861 146.496,221.424 150.404 C 220.531 151.837,219.620 153.304,219.400 153.664 C 219.180 154.024,216.011 158.792,212.357 164.259 C 208.703 169.727,205.238 174.961,204.657 175.892 L 203.600 177.584 203.606 186.892 C 203.609 192.011,203.779 196.463,203.982 196.785 C 205.089 198.535,214.989 190.601,221.202 182.985 C 222.631 181.233,223.911 179.710,224.047 179.600 C 225.029 178.807,234.769 164.140,235.736 162.000 C 235.885 161.670,236.333 160.860,236.732 160.200 C 237.131 159.540,238.332 157.380,239.402 155.400 C 243.521 147.775,243.589 147.599,243.595 144.691 C 243.603 140.527,247.187 133.137,248.784 133.991 C 250.111 134.702,250.287 134.503,252.761 129.500 C 258.288 118.325,262.500 111.895,267.957 106.300 C 271.335 102.837,272.109 102.578,274.236 104.200 C 274.957 104.750,275.668 105.200,275.817 105.200 C 275.966 105.200,277.307 106.087,278.797 107.170 L 281.505 109.140 282.180 107.470 C 286.097 97.777,292.041 90.283,299.239 85.964 L 301.879 84.381 303.990 85.359 C 306.336 86.446,306.723 86.392,308.538 84.729 C 310.959 82.510,315.940 80.674,320.928 80.163 C 324.928 79.753,325.441 79.999,326.236 82.703 C 327.253 86.159,327.955 87.569,329.241 88.739 L 330.408 89.800 330.668 96.916 C 330.968 105.154,330.841 104.899,333.415 102.465 C 338.716 97.453,346.294 93.589,356.200 90.849 C 358.215 90.292,363.517 89.600,365.772 89.600 L 367.486 89.600 367.743 92.059 C 367.884 93.411,368.003 95.076,368.006 95.759 C 368.018 98.216,367.948 98.197,377.285 98.229 C 387.362 98.264,389.119 98.644,391.372 101.275 C 393.552 103.823,393.790 109.452,391.940 114.751 C 391.509 115.988,391.046 117.360,390.912 117.800 C 390.778 118.240,389.978 119.699,389.134 121.043 C 387.185 124.147,387.170 124.059,389.921 125.526 C 393.742 127.562,394.268 128.848,392.325 131.400 C 389.931 134.545,386.882 137.890,381.930 142.805 C 375.429 149.255,375.267 149.569,377.699 150.983 C 378.415 151.399,379.090 151.843,379.200 151.970 C 379.310 152.096,380.464 152.917,381.765 153.793 C 383.065 154.670,384.325 155.570,384.565 155.793 C 384.804 156.017,385.720 156.722,386.600 157.359 C 391.208 160.697,392.312 162.839,390.673 165.254 C 389.083 167.597,388.345 168.338,383.071 172.882 C 377.718 177.495,377.183 178.199,377.488 180.238 C 377.788 182.248,371.807 186.449,367.305 187.391 C 366.592 187.540,365.906 187.828,365.781 188.031 C 365.655 188.234,365.111 188.400,364.571 188.400 C 364.031 188.400,363.277 188.568,362.895 188.773 C 362.513 188.979,361.300 189.366,360.200 189.635 C 358.144 190.136,356.943 190.344,350.400 191.333 C 345.859 192.019,345.200 192.258,345.200 193.219 C 345.200 194.331,345.744 194.547,351.200 195.596 C 352.190 195.787,354.080 196.239,355.400 196.601 C 356.720 196.964,358.430 197.403,359.200 197.579 C 360.547 197.886,362.109 198.425,363.800 199.168 C 364.240 199.361,365.192 199.742,365.916 200.015 C 368.245 200.892,370.360 202.665,370.130 203.548 C 369.971 204.154,371.042 205.434,374.749 209.068 C 379.497 213.723,381.629 216.676,381.573 218.521 C 381.499 220.984,377.427 225.900,373.225 228.600 C 370.399 230.415,370.300 230.447,364.000 231.647 C 361.690 232.086,359.379 232.533,358.864 232.640 C 358.169 232.783,357.998 233.010,358.203 233.517 C 358.354 233.893,358.574 236.450,358.691 239.200 L 358.905 244.200 356.532 244.900 C 353.834 245.696,343.961 245.865,340.800 245.169 C 339.810 244.951,337.920 244.607,336.600 244.405 C 331.814 243.671,329.779 243.269,328.674 242.839 C 328.055 242.597,327.030 242.400,326.398 242.400 C 325.765 242.400,325.136 242.220,325.000 242.000 C 324.864 241.780,324.424 241.600,324.022 241.600 C 323.621 241.600,322.383 241.306,321.271 240.947 C 317.995 239.889,317.743 240.277,319.489 243.688 C 320.309 245.290,321.119 246.660,321.290 246.733 C 321.460 246.807,321.600 247.021,321.600 247.210 C 321.600 247.398,322.320 249.104,323.200 251.000 C 324.080 252.896,324.800 254.619,324.800 254.829 C 324.800 255.039,324.958 255.523,325.152 255.905 C 328.940 263.387,326.491 267.736,318.475 267.767 C 316.564 267.774,314.910 267.887,314.800 268.018 C 310.663 272.942,302.485 272.929,293.505 267.983 C 292.628 267.499,291.600 267.488,291.600 267.962 C 291.600 268.161,290.453 269.511,289.051 270.962 C 285.511 274.627,283.780 274.500,276.200 270.020 C 275.100 269.369,273.570 268.524,272.800 268.142 C 272.030 267.759,270.843 267.031,270.162 266.523 C 268.558 265.327,268.181 265.357,266.738 266.800 C 265.085 268.454,265.193 268.506,260.396 263.778 L 256.111 259.556 253.245 262.186 C 249.702 265.438,249.898 265.501,245.200 259.603 C 244.430 258.636,242.891 256.755,241.779 255.423 C 240.667 254.090,239.228 252.280,238.581 251.400 C 237.934 250.520,237.304 249.710,237.181 249.600 C 237.058 249.490,236.451 248.725,235.831 247.900 C 234.794 246.518,234.548 246.400,232.714 246.400 C 228.927 246.400,225.708 242.326,222.600 233.600 C 220.095 226.566,219.079 224.854,216.400 223.155 C 211.996 220.363,209.613 222.213,211.449 227.000 C 213.448 232.212,214.513 256.731,213.178 266.800 C 212.930 268.670,212.583 271.550,212.407 273.200 C 211.606 280.687,211.161 284.245,210.955 284.800 C 210.833 285.130,210.569 286.930,210.369 288.800 C 210.169 290.670,209.726 294.180,209.384 296.600 C 209.043 299.020,208.595 302.260,208.389 303.800 C 208.183 305.340,207.731 308.400,207.384 310.600 C 207.037 312.800,206.606 315.617,206.425 316.860 C 206.244 318.103,205.987 319.297,205.853 319.514 C 205.333 320.356,203.294 334.726,202.408 343.800 C 202.214 345.780,201.869 348.750,201.640 350.400 C 201.412 352.050,201.219 354.897,201.212 356.726 C 201.206 358.556,201.006 360.415,200.769 360.858 C 200.485 361.389,200.310 367.276,200.257 378.132 L 200.177 394.600 198.389 394.852 C 197.405 394.990,196.005 395.296,195.277 395.530 C 193.008 396.263,192.961 396.141,193.093 389.890 C 193.159 386.761,193.288 379.430,193.381 373.600 C 193.731 351.498,195.521 332.663,198.569 319.000 C 198.913 317.460,199.366 315.252,199.577 314.094 C 199.788 312.936,200.057 311.832,200.175 311.640 C 200.293 311.449,200.587 310.057,200.827 308.546 C 201.068 307.036,201.422 304.900,201.615 303.800 C 204.023 290.075,204.551 286.201,205.992 271.686 C 207.209 259.422,206.235 241.032,203.773 229.800 C 201.707 220.371,200.435 218.395,199.142 222.600 C 198.735 223.920,197.952 226.390,197.402 228.089 C 196.851 229.788,196.400 231.456,196.400 231.795 C 196.400 232.134,196.232 232.723,196.027 233.105 C 195.661 233.788,193.065 241.447,192.402 243.800 C 192.041 245.085,190.562 249.281,190.006 250.600 C 189.821 251.040,189.103 252.840,188.411 254.600 C 186.840 258.592,182.754 266.966,181.409 268.948 C 180.854 269.766,180.400 270.525,180.400 270.635 C 180.400 271.282,175.559 277.200,175.030 277.200 C 174.959 277.200,174.135 276.930,173.200 276.600 C 170.231 275.553,170.027 275.659,167.259 279.700 C 160.237 289.952,155.406 294.800,152.211 294.800 C 151.100 294.800,150.883 294.523,149.862 291.800 C 147.659 285.920,148.624 285.833,141.854 292.525 C 135.637 298.670,132.534 301.023,131.203 300.601 C 130.637 300.421,130.393 300.089,130.515 299.661 C 130.993 297.977,130.967 297.814,130.200 297.699 C 129.694 297.623,128.505 298.363,126.965 299.711 C 116.989 308.442,108.976 303.779,111.914 290.953 C 112.666 287.668,111.556 287.257,108.643 289.744 C 103.604 294.046,98.294 296.519,90.521 298.183 C 84.290 299.518,83.338 298.810,83.665 293.085 L 83.800 290.716 78.561 290.777 C 69.507 290.882,61.223 289.114,58.300 286.452 C 56.164 284.506,56.906 279.939,60.193 274.811 C 62.365 271.422,62.360 271.495,60.574 269.518 C 58.637 267.375,58.233 267.887,72.500 254.421 C 76.514 250.633,76.096 249.324,71.321 250.734 C 53.424 256.020,43.630 257.267,42.987 254.342 C 42.830 253.624,42.901 252.939,43.160 252.680 C 44.147 251.693,43.568 251.260,40.900 250.993 C 33.009 250.200,25.200 246.911,25.200 244.379 C 25.200 243.341,30.413 234.404,32.861 231.246 C 34.121 229.619,33.819 229.035,31.300 228.233 C 28.142 227.227,21.383 224.456,19.200 223.273 C 18.210 222.736,16.932 222.051,16.360 221.749 C 13.181 220.074,12.482 218.677,13.458 215.954 C 14.282 213.655,13.839 212.918,10.122 210.411 C 8.759 209.492,7.005 207.988,6.225 207.070 C 5.445 206.151,4.601 205.157,4.351 204.860 C 1.880 201.938,1.602 199.773,3.352 197.081 C 6.579 192.116,10.062 189.856,17.700 187.771 C 18.965 187.426,20.000 187.082,20.000 187.007 C 20.000 186.932,19.370 185.399,18.600 183.600 C 15.988 177.498,17.010 175.935,23.994 175.352 C 26.994 175.102,27.253 175.005,28.180 173.791 C 30.059 171.328,38.820 171.377,43.736 173.880 C 45.891 174.976,46.120 174.288,44.582 171.337 C 42.868 168.049,40.525 162.256,39.838 159.608 C 38.939 156.142,40.446 154.583,46.400 152.818 C 47.390 152.525,48.971 152.041,49.914 151.742 C 52.165 151.030,59.288 151.040,61.827 151.758 C 66.285 153.020,66.000 153.093,66.000 150.684 C 66.000 145.971,70.562 145.537,79.111 149.437 C 80.272 149.967,81.371 150.400,81.554 150.400 C 81.737 150.400,83.127 151.054,84.643 151.853 C 93.131 156.326,92.512 156.265,94.082 152.789 C 96.026 148.488,98.544 148.794,107.000 154.357 C 108.540 155.370,109.975 156.273,110.189 156.362 C 110.635 156.550,115.050 159.944,117.372 161.886 C 119.259 163.463,119.462 163.484,120.471 162.200 C 121.643 160.711,121.881 160.845,126.109 165.374 C 130.746 170.338,143.364 180.400,144.954 180.400 C 145.034 180.400,147.147 181.585,149.650 183.033 C 153.791 185.429,165.204 191.200,165.803 191.200 C 165.939 191.200,167.075 191.666,168.326 192.235 C 170.471 193.211,172.379 194.050,174.200 194.820 C 174.640 195.006,176.440 195.723,178.200 196.413 C 179.960 197.104,181.760 197.815,182.200 197.993 C 196.925 203.954,196.769 198.950,181.854 186.873 C 174.513 180.929,172.848 179.660,170.310 178.077 C 168.830 177.155,167.356 176.400,167.033 176.400 C 166.711 176.400,166.351 176.244,166.232 176.053 C 166.114 175.861,165.339 175.594,164.509 175.459 C 157.210 174.269,142.047 166.806,135.600 161.229 C 134.170 159.992,132.113 158.271,131.028 157.405 C 129.944 156.538,128.629 155.432,128.106 154.948 C 127.583 154.463,126.175 153.391,124.977 152.567 C 122.399 150.791,122.356 149.019,124.846 147.200 C 125.885 146.441,122.263 142.400,120.545 142.400 C 119.872 142.400,108.229 133.124,105.850 130.693 C 104.954 129.777,104.878 128.235,105.682 127.287 C 106.307 126.550,108.400 122.987,108.400 122.660 C 108.400 122.552,107.725 121.774,106.900 120.932 C 101.545 115.465,94.630 103.860,92.850 97.354 C 91.624 92.871,94.375 89.200,98.960 89.200 C 101.898 89.200,102.475 86.796,100.055 84.638 C 99.585 84.219,99.200 83.693,99.200 83.470 C 99.200 83.246,98.948 82.779,98.640 82.431 C 94.202 77.429,95.557 68.794,100.461 70.825 C 102.666 71.739,103.221 69.975,101.792 66.600 C 99.846 62.007,100.078 55.836,102.267 53.953 C 106.779 50.074,112.098 50.333,123.321 54.979 C 125.210 55.760,126.855 56.400,126.977 56.400 C 127.589 56.400,126.515 52.332,125.053 49.112 C 124.226 47.290,122.834 44.140,121.910 42.000 C 120.464 38.650,121.053 35.377,123.443 33.496 C 124.251 32.859,124.334 32.457,124.307 29.296 C 124.259 23.600,125.920 19.413,128.858 17.826 L 130.290 17.052 132.607 18.186 C 133.881 18.809,136.033 20.079,137.389 21.007 C 140.435 23.093,141.600 22.794,140.918 20.105 C 140.096 16.866,141.637 10.579,144.053 7.321 C 147.648 2.472,151.718 1.348,156.648 3.842 " stroke="none" fill="#211e1d" fill-rule="evenodd"></path></g></svg>