<?xml version="1.0" encoding="UTF-8" standalone="no"?>
<!-- Created with Inkscape (http://www.inkscape.org/) -->

<svg
   version="1.1"
   id="svg1"
   width="200"
   height="150"
   viewBox="0 0 200 150"
   xmlns="http://www.w3.org/2000/svg"
   xmlns:svg="http://www.w3.org/2000/svg">
  <defs
     id="defs1" />
  <g
     id="g1">
    <path
       style="fill:#000000"
       d="M 42.362995,121.07752 C 28.578477,114.81816 21.804478,98.076091 27.297369,83.842534 29.120518,79.118264 36.721707,70.995182 41.249952,68.931976 43.174063,68.055292 43.768397,66.659635 44.67824,60.881432 50.312777,25.097785 93.711088,10.706624 119.53145,36.059625 124.45053,40.88967 124.69904,41 130.65932,41 c 7.08027,0 11.82708,1.732142 16.86237,6.153185 4.40974,3.871805 7.31342,9.364695 8.14059,15.399532 0.57623,4.204047 0.98859,4.743412 5.29476,6.925515 10.47113,5.306122 15.48381,14.482483 14.90203,27.280107 -0.30374,6.681421 -0.82468,8.651721 -3.3805,12.785611 -3.52494,5.70138 -9.96616,10.94193 -15.25383,12.41044 -2.35594,0.65431 -23.38538,1.02843 -57.22474,1.01807 -50.192237,-0.0154 -53.75578,-0.13253 -57.637005,-1.89494 z M 156.53668,119.3328 c 14.22782,-4.8479 21.44909,-22.639564 14.62116,-36.023409 -2.50095,-4.90226 -8.7902,-10.685392 -13.45498,-12.372197 -3.14642,-1.13776 -3.59988,-1.764831 -4.20781,-5.818755 -1.09247,-7.285141 -3.41924,-11.881736 -8.10012,-16.00201 -5.10655,-4.494965 -11.64346,-6.628343 -17.74671,-5.791799 -4.06471,0.55713 -4.55711,0.350364 -8.2357,-3.4583 C 110.3393,30.472294 100.37716,26 88.524951,26 66.255009,26 49.724019,41.449797 46.515525,65.261841 c -0.570461,4.233712 -1.056405,4.973447 -4.381481,6.669775 -8.370757,4.270442 -13.275515,11.900678 -13.936434,21.680641 -0.795356,11.769283 7.113092,22.899643 18.795916,26.453403 1.378561,0.41934 25.488812,0.80111 53.578334,0.84839 45.19782,0.0761 51.63463,-0.1058 55.96482,-1.58125 z M 49.698901,112.21978 C 48.561397,110.96286 48,108.63369 48,105.17126 48,101.33333 47.484329,99.484329 46,98 44.9,96.9 44,95.169744 44,94.154988 44,93.140231 44.9,91.495486 46,90.5 c 1.522735,-1.378057 2,-3.079967 2,-7.131935 0,-4.539675 0.358981,-5.557172 2.442184,-6.922139 3.449567,-2.260244 6.972939,-1.547245 7.402786,1.498046 0.191013,1.353249 -0.313871,2.925728 -1.131287,3.523438 -3.336525,2.439726 -3.380381,23.61125 -0.05428,26.20146 0.825527,0.64288 1.352375,2.21788 1.170775,3.5 -0.440607,3.11074 -5.65703,3.78493 -8.131281,1.05091 z m 4.980957,-2.56578 c -0.791902,-0.6347 -1.704938,-3.57822 -2.028968,-6.54115 -0.324031,-2.96293 -1.347783,-6.225427 -2.275006,-7.249996 -1.581669,-1.747725 -1.579918,-1.979918 0.02834,-3.757018 0.942807,-1.04179 1.941398,-4.07929 2.219091,-6.75 C 52.915073,82.549819 53.815033,79.972331 54.755234,79.25 56.208603,78.133415 56.15215,78 54.226313,78 51.45118,78 50,80.783173 50,86.105518 c 0,2.539249 -0.663148,4.969771 -1.654988,6.065741 -1.539983,1.701663 -1.539983,1.955819 0,3.657482 C 49.435882,97.034138 50,99.420154 50,102.82874 c 0,3.8688 0.512917,5.68418 2.036475,7.20773 1.12006,1.12007 2.496989,1.75187 3.05984,1.404 0.645936,-0.39921 0.492341,-1.05808 -0.416457,-1.78647 z m 88.986812,3.67933 c -1.18915,-1.18914 -0.70475,-5.10474 0.6981,-5.64306 1.24436,-0.47751 2.82237,-8.112045 2.72636,-13.19027 -0.1714,-9.065211 -3.03797,-16.635305 -4.37019,-11.540892 C 142.32876,84.458812 141.3669,85 139.09362,85 H 136 v 9.418213 C 136,106.15598 135.69095,107 131.39301,107 H 128 V 96 85 h -3.43045 c -2.76243,0 -3.51484,-0.438147 -3.86382,-2.25 -0.35655,-1.851167 -0.45751,-1.741873 -0.56955,0.616577 -0.12343,2.598297 -0.39355,2.805927 -2.88618,2.218535 -4.7858,-1.127784 -5.52453,-1.113998 -5.9578,0.111183 -0.23269,0.657963 1.37664,2.114438 3.57629,3.236612 7.64031,3.897798 9.33964,10.01281 4.20843,15.144013 -2.50504,2.50504 -3.68489,2.92089 -8.25,2.90777 -2.9298,-0.008 -5.98683,-0.43268 -6.79338,-0.9428 -0.91437,-0.57831 -1.914,-0.55606 -2.65521,0.0591 -0.6538,0.54262 -4.718896,0.85437 -9.033534,0.6928 L 84.5,106.5 v -14 -14 l 8.128247,-0.288475 c 6.857162,-0.243364 8.229023,-0.02586 8.772673,1.390877 C 102.83887,83.349633 101.14446,85 95.859288,85 c -4.227349,0 -4.954307,0.272182 -4.673985,1.75 0.242145,1.276556 1.47941,1.83319 4.573324,2.057498 C 99.695971,89.092954 100,89.321797 100,92 c 0,2.679221 -0.303146,2.906938 -4.25,3.192502 -3.533024,0.255623 -4.303908,0.687074 -4.569551,2.557498 -0.289556,2.038803 0.0906,2.25 4.05,2.25 2.403253,0 4.909551,0.54 5.569551,1.2 0.93333,0.93333 1.2,0.82222 1.2,-0.5 0,-1.990067 2.74972,-2.226787 6.42333,-0.55298 3.1858,1.45155 6.34597,-0.515146 4.46656,-2.779699 C 112.26576,96.615295 111.16974,96 110.45428,96 109.73882,96 107.76892,94.834998 106.07673,93.411106 103.51168,91.252765 103,90.100684 103,86.483687 c 0,-3.49591 0.51173,-4.741057 2.63486,-6.411107 2.89674,-2.278579 10.07563,-2.833073 13.43088,-1.037396 C 120.43198,79.766375 121,79.748055 121,78.9728 c 0,-0.748957 3.47825,-0.998348 10.95094,-0.785184 9.74436,0.277965 11.00112,0.119568 11.40638,-1.437616 0.57113,-2.194534 4.41986,-2.294794 7.42017,-0.193296 1.787,1.251664 2.22251,2.525356 2.22251,6.5 0,3.609963 0.53945,5.482747 2,6.943296 2.38712,2.387124 2.5975,5.842612 0.45126,7.411984 -0.95508,0.69837 -1.77231,3.423876 -2.13198,7.110246 -0.32077,3.28777 -1.26858,6.76527 -2.10624,7.72777 -1.49417,1.71685 -6.23262,2.39709 -7.54637,1.08333 z M 149.8,109.8 c 0.66,-0.66 1.2,-3.585 1.2,-6.5 0,-4.044079 0.49565,-5.795651 2.09165,-7.391653 l 2.09166,-2.091653 -2.09166,-1.465051 C 151.42167,91.181942 151,89.829558 151,85.643296 151,80.039972 149.81965,78 146.57749,78 c -1.94435,0 -1.93663,0.06015 0.2,1.556704 1.75069,1.226232 2.22251,2.536327 2.22251,6.171259 0,2.826184 0.61992,5.299558 1.59958,6.382076 1.46612,1.620036 1.46612,1.958079 0,4.051247 C 149.68187,97.471506 149,100.45739 149,103.1658 c 0,3.74471 -0.45953,5.04266 -2.22251,6.2775 -2.13663,1.49655 -2.14435,1.5567 -0.2,1.5567 1.11238,0 2.56251,-0.54 3.22251,-1.2 z M 99,104.05479 c 0,-0.51986 -2.1375,-1.08236 -4.75,-1.25 L 89.5,102.5 89.195209,97.75 88.890418,93 h 4.554791 C 95.950344,93 98,92.55 98,92 98,91.45 95.949126,91 93.442502,91 H 88.885004 L 89.192502,86.75 89.5,82.5 l 5,-0.592896 c 4.926048,-0.584127 4.900164,-0.59522 -1.75,-0.75 L 86,81 v 11.333333 c 0,6.233334 0.3,11.633337 0.666667,11.999997 C 87.705105,105.37177 99,105.11668 99,104.05479 Z m 16.31574,-0.20449 c 2.87176,-1.51158 3.65043,-2.79086 3.66895,-6.02772 0.0157,-2.7518 -1.97149,-4.774267 -7.8862,-8.02607 -5.6186,-3.088999 -3.13179,-8.550431 3.40997,-7.488849 4.61892,0.749546 4.52673,-1.022833 -0.0983,-1.890499 -2.75355,-0.516569 -4.2096,-0.212542 -6.25,1.305013 -5.07368,3.773564 -3.52241,8.677936 3.83987,12.139848 3.82207,1.797224 5.05743,5.158927 2.86609,7.799327 -0.93281,1.12397 -2.46893,1.41809 -5.57676,1.06779 C 106.9302,102.46324 105,102.6029 105,103.0395 c 0,2.01277 6.98862,2.56206 10.31574,0.8108 z M 133,94 V 83 h 3.44098 c 1.89254,0 3.7191,-0.45 4.05902,-1 0.39476,-0.638739 -2.67595,-1 -8.5,-1 -5.82405,0 -8.89476,0.361261 -8.5,1 0.33992,0.55 1.94148,1 3.55902,1 H 130 v 10.333333 c 0,5.683334 0.3,10.633337 0.66667,10.999997 C 132.52144,106.1881 133,104.06875 133,94 Z m -72.538224,11.76099 c -0.28846,-0.75172 -0.397867,-7.192962 -0.243125,-14.313875 L 60.5,78.5 66,78.178318 c 3.025,-0.176925 7.113381,0.156432 9.08529,0.740793 5.485713,1.625652 7.667448,8.133493 4.326037,12.904024 -1.470763,2.099809 -1.433654,2.597937 0.5,6.711608 C 83.018374,105.1447 82.735894,107 78.622445,107 74.986367,107 73.665692,105.92072 72.504108,102 72.09674,100.625 71.029165,98.659919 70.131719,97.633154 68.588278,95.867307 68.472949,96.056662 68,101.13315 c -0.485058,5.20647 -0.597329,5.37623 -3.756875,5.68072 -2.068585,0.19935 -3.448233,-0.1848 -3.781349,-1.05288 z M 65.80226,99.171397 C 66.073281,94.53445 66.341469,94 68.397272,94 c 2.637105,0 4.476821,1.939763 6.876065,7.25 C 76.805245,104.64057 79,106.33206 79,104.12212 c 0,-1.18299 -2.734799,-7.202613 -4.252944,-9.361248 -1.024246,-1.456365 -0.859232,-1.994 1.014916,-3.306704 C 77.195921,90.449791 78,88.854787 78,87.014725 78,82.523294 75.702563,81 68.928571,81 H 63 v 12.083333 c 0,9.219697 0.296238,11.985707 1.25,11.671397 0.728721,-0.24015 1.376049,-2.56853 1.55226,-5.583333 z M 66,87.468615 c 0,-5.11364 1.520672,-6.371257 5.867012,-4.8521 1.851688,0.647212 2.728613,1.7488 2.955246,3.712362 C 75.257752,90.102032 73.43556,92 69.377555,92 66.037728,92 66,91.949384 66,87.468615 Z m 5.963645,1.07519 C 73.476085,86.721426 72.493564,85 69.940983,85 68.537268,85 68,85.692005 68,87.5 c 0,2.787417 2.06521,3.331279 3.963645,1.043805 z"
       id="path5" />
  </g>
</svg>
